<svg width="512" height="512" viewBox="0 0 512 512" fill="none" xmlns="http://www.w3.org/2000/svg">
<rect width="512" height="512" rx="256" fill="#F46A6A"/>
<path fill-rule="evenodd" clip-rule="evenodd" d="M256 0C114.688 0 0 114.688 0 256C0 397.312 114.688 512 256 512C397.312 512 512 397.312 512 256C512 114.688 397.312 0 256 0ZM256 460.8C143.104 460.8 51.2 368.896 51.2 256C51.2 143.104 143.104 51.2 256 51.2C368.896 51.2 460.8 143.104 460.8 256C460.8 368.896 368.896 460.8 256 460.8ZM384 230.4H128V281.6H384V230.4Z" fill="white"/>
</svg>
