<?xml version="1.0" standalone="no"?>
<!DOCTYPE svg PUBLIC "-//W3C//DTD SVG 1.1//EN" "http://www.w3.org/Graphics/SVG/1.1/DTD/svg11.dtd" >
<svg xmlns="http://www.w3.org/2000/svg">
<metadata>Generated by IcoMoon</metadata>
<defs>
<font id="gftl" horiz-adv-x="1024">
<font-face units-per-em="1024" ascent="960" descent="-64" />
<missing-glyph horiz-adv-x="1024" />
<glyph unicode="&#x20;" horiz-adv-x="512" d="" />
<glyph unicode="&#xe900;" glyph-name="access_time" d="M511.576 874.716c-235.52 0-426.24-191.146-426.24-426.666s190.72-426.668 426.24-426.668c235.946 0 427.094 191.148 427.094 426.668s-191.148 426.666-427.094 426.666zM512.012 106.798c-188.586 0-341.332 152.746-341.332 341.332 0 188.588 152.746 341.334 341.332 341.334 188.588 0 341.334-152.746 341.334-341.334 0-188.586-152.746-341.332-341.334-341.332zM469.336 661.458h64v-224l192-113.92-32-52.48-224 134.4v256z" />
<glyph unicode="&#xe901;" glyph-name="arrow_bottom" d="M165.075 696.986l-75.52-75.52 422.399-422.4 422.4 422.4-75.52 75.52-346.88-346.88-346.879 346.88z" />
<glyph unicode="&#xe902;" glyph-name="arrow_left" d="M760.992 794.926l-75.52 75.52-422.4-422.4 422.4-422.4 75.52 75.52-346.88 346.88 346.88 346.88z" />
<glyph unicode="&#xe903;" glyph-name="arrow_long_bottom" d="M853.34 447.986l-60.16 60.16-238.506-238.080v519.252h-85.334v-519.252l-238.506 238.080-60.16-60.16 341.334-341.334 341.332 341.334z" />
<glyph unicode="&#xe904;" glyph-name="arrow_long_left" d="M512.008 106.682l60.16 60.16-238.080 238.506h519.252v85.334h-519.252l238.080 238.506-60.16 60.161-341.334-341.333 341.334-341.334z" />
<glyph unicode="&#xe905;" glyph-name="arrow_long_right" d="M511.994 789.318l-60.16-60.16 238.080-238.506h-519.254v-85.334h519.254l-238.080-238.506 60.16-60.16 341.332 341.332-341.332 341.334z" />
<glyph unicode="&#xe906;" glyph-name="arrow_long_top" d="M170.66 448.016l60.16-60.16 238.506 238.080v-519.254h85.334v519.254l238.506-238.080 60.16 60.16-341.334 341.333-341.332-341.333z" />
<glyph unicode="&#xe907;" glyph-name="arrow_right" d="M262.976 101.136l75.52-75.52 422.4 422.4-422.4 422.4-75.52-75.52 346.88-346.88-346.88-346.88z" />
<glyph unicode="&#xe908;" glyph-name="arrow_top" d="M858.892 199.014l75.52 75.52-422.4 422.4-422.399-422.4 75.52-75.52 346.879 346.88 346.88-346.88z" />
<glyph unicode="&#xe909;" glyph-name="bx_crown" d="M478.672 815.94l-137.344-171.69-137.344 171.69c-5.547 6.857-13.079 11.831-21.564 14.239s-17.507 2.133-25.83-0.787c-8.323-2.921-15.538-8.344-20.657-15.526s-7.892-15.772-7.938-24.592v-639.999c0-47.062 38.272-85.334 85.333-85.334h597.334c47.062 0 85.334 38.272 85.334 85.334v639.999c-0.046 8.82-2.82 17.41-7.938 24.592-5.12 7.182-12.336 12.606-20.658 15.526s-17.344 3.196-25.83 0.787c-8.484-2.408-16.016-7.382-21.564-14.239l-137.344-171.69-137.344 171.69c-16.256 20.224-50.39 20.224-66.646 0zM213.328 149.274v85.332h597.376v-85.332h-597.376zM649.34 549.274c16.256-20.268 50.432-20.268 66.688 0l94.634 118.356 0.042-347.69h-597.376v347.69l94.678-118.356c16.256-20.268 50.432-20.268 66.688 0l137.302 171.69 137.344-171.69z" />
<glyph unicode="&#xe90a;" glyph-name="bx_id_card" d="M414.528 448.030c49.11 0 85.334 36.224 85.334 85.334 0 49.108-36.224 85.332-85.334 85.332-49.108 0-85.332-36.224-85.332-85.332 0-49.11 36.18-85.334 85.332-85.334zM853.296 789.303h-682.668c-47.061 0-85.333-35.883-85.333-80.001v-522.666c0-44.118 38.272-80 85.333-80h682.668c47.060 0 85.332 35.882 85.332 80v522.666c0 44.118-38.272 80.001-85.332 80.001zM853.296 191.97l-682.668 0.468v511.532l682.668-0.47v-511.53zM597.328 576.002h170.668v-85.332h-170.668v85.332zM639.996 405.336h128v-85.334h-128v85.334zM573.008 297.134c0 58.624-71.508 118.868-158.506 118.868s-158.506-60.244-158.506-118.868v-19.798h317.012v19.798z" />
<glyph unicode="&#xe90b;" glyph-name="bx_money_1" d="M895.964 789.4h-768c-11.316 0-22.168-4.495-30.17-12.497s-12.497-18.854-12.497-30.17v-597.334c0-11.316 4.495-22.168 12.497-30.17s18.854-12.496 30.17-12.496h768c11.316 0 22.168 4.494 30.17 12.496s12.496 18.854 12.496 30.17v597.334c0 11.316-4.494 22.168-12.496 30.17s-18.854 12.497-30.17 12.497zM853.296 320.068c-33.946 0-66.504-13.486-90.508-37.492-24.006-24.004-37.492-56.562-37.492-90.508h-426.666c0 33.946-13.486 66.504-37.49 90.508-24.004 24.006-56.562 37.492-90.51 37.492v256c33.948 0 66.506 13.484 90.51 37.49 24.004 24.004 37.49 56.562 37.49 90.51h426.666c0-33.948 13.486-66.506 37.492-90.51 24.004-24.006 56.562-37.49 90.508-37.49v-256z" />
<glyph unicode="&#xe90c;" glyph-name="bx_money" d="M895.964 789.4h-768c-11.316 0-22.168-4.495-30.17-12.497s-12.497-18.854-12.497-30.17v-597.334c0-11.316 4.495-22.168 12.497-30.17s18.854-12.496 30.17-12.496h768c11.316 0 22.168 4.494 30.17 12.496s12.496 18.854 12.496 30.17v597.334c0 11.316-4.494 22.168-12.496 30.17s-18.854 12.497-30.17 12.497zM853.296 320.068c-33.946 0-66.504-13.486-90.508-37.492-24.006-24.004-37.492-56.562-37.492-90.508h-426.666c0 33.946-13.486 66.504-37.49 90.508-24.004 24.006-56.562 37.492-90.51 37.492v256c33.948 0 66.506 13.484 90.51 37.49 24.004 24.004 37.49 56.562 37.49 90.51h426.666c0-33.948 13.486-66.506 37.492-90.51 24.004-24.006 56.562-37.49 90.508-37.49v-256zM511.964 618.6c-94.124 0-170.668-76.544-170.668-170.666s76.544-170.666 170.668-170.666c94.122 0 170.666 76.544 170.666 170.666s-76.544 170.666-170.666 170.666zM511.964 362.6c-47.062 0-85.334 38.272-85.334 85.334s38.272 85.334 85.334 85.334c47.060 0 85.332-38.272 85.332-85.334s-38.272-85.334-85.332-85.334z" />
<glyph unicode="&#xe90d;" glyph-name="bx_registered" d="M517.97 874.6c-84.388 0-166.878-25.024-237.044-71.906-70.164-46.883-124.852-113.519-157.145-191.481-32.293-77.964-40.743-163.752-24.28-246.518 16.463-82.764 57.099-158.79 116.769-218.46 59.672-59.67 135.696-100.306 218.462-116.77 82.764-16.462 168.552-8.014 246.516 24.28s144.6 86.98 191.482 157.146c46.882 70.164 71.906 152.656 71.906 237.042 0 113.16-44.952 221.684-124.968 301.7s-188.54 124.968-301.698 124.968zM517.97 106.6c-67.51 0-133.504 20.018-189.636 57.524s-99.88 90.816-125.716 153.186c-25.834 62.37-32.594 131.002-19.423 197.214s45.679 127.032 93.415 174.768c47.736 47.736 108.556 80.245 174.768 93.416s134.844 6.411 197.214-19.424c62.37-25.834 115.68-69.584 153.186-125.716s57.524-122.126 57.524-189.636c0-90.526-35.96-177.346-99.974-241.358-64.012-64.012-150.832-99.974-241.358-99.974zM688.636 533.4c0 33.948-13.486 66.504-37.49 90.51-24.004 24.004-56.562 37.49-90.51 37.49h-213.334v-426.668h85.334v170.668h62.294l113.92-170.668h102.4l-117.334 175.788c27.064 7.286 50.988 23.254 68.1 45.454 17.11 22.198 26.462 49.398 26.62 77.426zM560.636 490.732h-128v85.334h128c11.316 0 22.168-4.494 30.17-12.496s12.496-18.854 12.496-30.17c0-11.316-4.494-22.168-12.496-30.17s-18.854-12.498-30.17-12.498z" />
<glyph unicode="&#xe90e;" glyph-name="calendar_today" d="M853.368 832.028h-42.666v85.333h-85.334v-85.333h-426.666v85.333h-85.334v-85.333h-42.666c-46.933 0-85.333-38.4-85.333-85.332v-682.668c0-46.932 38.4-85.332 85.333-85.332h682.666c46.934 0 85.334 38.4 85.334 85.332v682.668c0 46.932-38.4 85.332-85.334 85.332zM853.406 64.028h-682.666v469.334h682.666v-469.334zM170.74 618.736v128h682.666v-128h-682.666z" />
<glyph unicode="&#xe90f;" glyph-name="camera_alt" d="M718.082 746.684h135.254c46.934 0 85.334-38.4 85.334-85.332v-512c0-46.934-38.4-85.334-85.334-85.334h-682.667c-46.933 0-85.333 38.4-85.333 85.334v512c0 46.932 38.4 85.332 85.333 85.332h135.253l78.080 85.334h256l78.080-85.334zM170.687 149.432h682.667v512h-172.8l-78.080 85.334h-180.908l-78.080-85.334h-172.799v-512zM512.024 618.762c-117.76 0-213.332-95.574-213.332-213.334s95.572-213.334 213.332-213.334c117.76 0 213.334 95.574 213.334 213.334s-95.574 213.334-213.334 213.334zM384 405.284c0-70.4 57.6-128 128-128s128 57.6 128 128c0 70.4-57.6 128-128 128s-128-57.6-128-128z" />
<glyph unicode="&#xe910;" glyph-name="cancel" d="M512.016 874.646c-235.946 0-426.666-190.72-426.666-426.666s190.72-426.666 426.666-426.666c235.946 0 426.666 190.72 426.666 426.666s-190.72 426.666-426.666 426.666zM512.032 106.63c-188.16 0-341.332 153.174-341.332 341.334s153.172 341.332 341.332 341.332c188.16 0 341.334-153.172 341.334-341.332s-153.174-341.334-341.334-341.334zM512.030 508.126l153.174 153.174 60.16-60.16-153.174-153.174 153.174-153.174-60.16-60.16-153.174 153.174-153.174-153.174-60.16 60.16 153.174 153.174-153.174 153.174 60.16 60.16 153.174-153.174z" />
<glyph unicode="&#xe911;" glyph-name="check_circle" d="M512.006 874.646c-235.52 0-426.667-191.146-426.667-426.666s191.147-426.666 426.667-426.666c235.52 0 426.666 191.146 426.666 426.666s-191.146 426.666-426.666 426.666zM512.022 106.63c-188.16 0-341.333 153.174-341.333 341.334s153.173 341.332 341.333 341.332c188.16 0 341.334-153.172 341.334-341.332s-153.174-341.334-341.334-341.334zM426.658 355.376l281.174 281.174 60.16-60.588-341.334-341.332-170.666 170.666 60.16 60.16 110.506-110.080z" />
<glyph unicode="&#xe912;" glyph-name="check" d="M375.256 282.664l-177.919 177.92-60.587-60.16 238.506-238.506 512 512-60.16 60.16-451.84-451.414z" />
<glyph unicode="&#xe913;" glyph-name="close" d="M810.666 686.506l-60.16 60.16-238.506-238.506-238.506 238.506-60.16-60.16 238.506-238.506-238.506-238.506 60.16-60.16 238.506 238.506 238.506-238.506 60.16 60.16-238.506 238.506 238.506 238.506z" />
<glyph unicode="&#xe914;" glyph-name="cloud_upload" horiz-adv-x="1026" d="M825.622 531.664c-29.014 147.2-158.294 257.706-313.602 257.706-123.306 0-230.398-69.974-283.732-172.374-128.427-13.652-228.267-122.452-228.267-254.292 0-141.228 114.773-256 255.999-256h554.668c117.76 0 213.332 95.572 213.332 213.332 0 112.64-87.466 203.948-198.398 211.628zM810.738 191.988h-554.668c-94.293 0-170.666 76.372-170.666 170.666 0 87.466 65.28 160.426 151.894 169.386l45.652 4.694 21.334 40.534c40.534 78.080 119.894 126.72 207.786 126.72 111.788 0 208.214-79.36 229.974-189.014l12.8-64 65.28-4.694c66.56-4.266 118.614-60.16 118.614-126.292 0-70.4-57.6-128-128-128zM450.188 405.328h-108.8l170.666 170.668 170.668-170.668h-108.8v-128h-123.734v128z" />
<glyph unicode="&#xe915;" glyph-name="confirmation_number" d="M938.63 533.402v170.666c0 47.36-38.4 85.333-85.334 85.333h-682.666c-46.933 0-84.907-37.973-84.907-85.333v-170.666c46.933 0 84.907-38.4 84.907-85.334s-37.973-85.334-85.333-85.334v-170.666c0-46.934 38.4-85.334 85.333-85.334h682.666c46.934 0 85.334 38.4 85.334 85.334v170.666c-46.934 0-85.334 38.4-85.334 85.334s38.4 85.334 85.334 85.334zM853.26 595.628c-50.772-29.44-85.332-84.906-85.332-147.626s34.56-118.188 85.332-147.628v-108.372h-682.666v108.372c50.774 29.44 85.334 84.908 85.334 147.628 0 63.146-34.134 118.186-84.908 147.626l-0.427 108.374h682.666v-108.374zM554.63 320.002h-85.334v-85.334h85.334v85.334zM469.296 490.802h85.334v-85.334h-85.334v85.334zM554.63 661.402h-85.334v-85.334h85.334v85.334z" />
<glyph unicode="&#xe916;" glyph-name="delete" d="M618.67 832l42.666-42.667h149.334v-85.333h-597.334v85.333h149.334l42.666 42.667h213.334zM682.67 576h-341.334v-426.666h341.334v426.666zM256 661.328h512v-512c0-46.934-38.4-85.334-85.334-85.334h-341.332c-46.934 0-85.334 38.4-85.334 85.334v512z" />
<glyph unicode="&#xe917;" glyph-name="done_all" d="M947.426 734.128l-451.414-451.414-178.346 177.92-60.16-60.16 238.506-238.506 512 512-60.586 60.16zM766.554 673.968l-60.16 60.16-270.506-270.508 60.16-60.16 270.506 270.508zM254.512 161.968l-238.507 238.506 60.587 60.16 238.080-238.506-60.16-60.16z" />
<glyph unicode="&#xe918;" glyph-name="flag" d="M192 810.669h384l17.066-85.333h238.934v-426.666h-298.666l-17.068 85.332h-238.932v-298.666h-85.334v725.333zM523.094 640.002l-17.068 85.334h-228.692v-256h308.906l17.066-85.334h143.36v256h-223.572z" />
<glyph unicode="&#xe919;" glyph-name="forward" d="M512 106.67c-141.226 0-256 114.772-256 256 0 141.226 114.774 256 256 256v-170.668l213.334 213.334-213.334 213.333v-170.667c-188.586 0-341.333-152.746-341.333-341.332 0-188.588 152.747-341.334 341.333-341.334s341.334 152.746 341.334 341.334h-85.334c0-141.228-114.774-256-256-256zM465.068 416.836v-182.186h-36.266v139.092l-43.094-13.226v29.44l75.52 26.88h3.84zM610.988 414.736c-7.68 2.986-15.786 4.266-25.172 4.266-9.388 0-17.494-1.28-25.174-4.266s-14.080-7.68-19.2-14.080c-5.12-6.4-9.814-14.506-12.374-24.32s-4.266-21.334-4.266-34.986v-31.574c0-13.654 1.706-25.6 4.694-34.986 2.986-9.388 7.252-17.92 12.8-24.32 5.546-6.4 11.946-11.094 19.626-14.080 7.68-2.988 15.786-4.268 25.174-4.268 9.386 0 17.492 1.28 25.172 4.268 7.68 2.986 14.080 7.68 19.2 14.080s9.388 14.506 12.374 24.32c2.986 9.812 4.266 21.332 4.266 34.986v31.574c0 13.652-1.706 25.6-4.692 34.986-2.988 9.386-7.254 17.92-12.8 24.32-5.548 6.4-12.374 11.094-19.628 14.080zM609.702 284.626c1.28 5.546 1.706 12.374 1.706 20.48h0.428v41.386c0 8.108-0.428 14.934-1.708 20.48-1.28 5.548-2.986 9.814-5.12 13.228-2.132 3.412-5.12 5.972-8.106 7.252s-6.826 2.134-10.666 2.134c-3.84 0-7.254-0.854-10.668-2.134-3.412-1.28-5.546-3.84-8.106-7.252-2.56-3.414-3.84-7.68-5.12-13.228-1.28-5.546-1.706-12.372-1.706-20.48v-41.386c0-8.106 0.426-14.934 1.706-20.48s2.986-10.24 5.12-13.654c2.134-3.412 5.12-5.972 8.106-7.252 2.988-1.28 6.828-2.134 10.668-2.134s7.252 0.854 10.666 2.134c3.414 1.28 5.974 3.84 8.106 7.252 2.134 3.414 3.414 8.108 4.694 13.654z" />
<glyph unicode="&#xe91a;" glyph-name="frame_17" d="M512 960c-282.624 0-512-229.376-512-512s229.376-512 512-512c282.624 0 512 229.376 512 512s-229.376 512-512 512zM512 38.4c-225.792 0-409.6 183.808-409.6 409.6s183.808 409.6 409.6 409.6c225.792 0 409.6-183.808 409.6-409.6s-183.808-409.6-409.6-409.6zM768 499.2h-512v-102.4h512v102.4z" />
<glyph unicode="&#xe91b;" glyph-name="frame_18" d="M893.448 490.658h87.894v-85.332h-87.894c-19.626-177.92-160.854-319.148-338.774-338.774v-87.894h-85.332v87.894c-177.92 19.626-319.147 160.854-338.774 338.774h-87.893v85.332h87.893c19.627 177.92 160.854 319.147 338.774 338.774v87.893h85.332v-87.893c177.92-19.627 319.148-160.854 338.774-338.774zM512.016 618.65c-94.292 0-170.666-76.374-170.666-170.666 0-94.294 76.374-170.668 170.666-170.668 94.294 0 170.668 76.374 170.668 170.668 0 94.292-76.374 170.666-170.668 170.666zM213.35 447.984c0-165.12 133.546-298.668 298.666-298.668s298.668 133.548 298.668 298.668c0 165.12-133.548 298.666-298.668 298.666s-298.666-133.546-298.666-298.666z" />
<glyph unicode="&#xe91c;" glyph-name="frame_19" d="M853.334 832c23.466 0 42.666-19.2 42.666-42.667v-255.999c0-23.468-19.2-42.668-42.666-42.668h-682.667c-23.467 0-42.667 19.2-42.667 42.668v255.999c0 23.467 19.2 42.667 42.667 42.667h682.667zM810.734 575.996v170.666h-597.334v-170.666h597.334zM170.667 405.338h682.667c23.466 0 42.666-19.2 42.666-42.668v-256c0-23.466-19.2-42.666-42.666-42.666h-682.667c-23.467 0-42.667 19.2-42.667 42.666v256c0 23.468 19.2 42.668 42.667 42.668zM810.734 149.334v170.666h-597.334v-170.666h597.334zM298.6 170.662c-34.986 0-64 28.588-64 64 0 35.414 29.014 64 64 64s64-28.586 64-64c0-35.412-28.586-64-64-64zM234.6 661.338c0-35.414 29.014-64 64-64 35.414 0 64 29.012 64 64 0 34.986-29.014 64-64 64s-64-28.588-64-64z" />
<glyph unicode="&#xe91d;" glyph-name="frame_20" d="M512 605.496c97.89 0 177.256 79.354 177.256 177.248 0 97.9-79.356 177.254-177.256 177.254-97.892 0-177.248-79.363-177.248-177.254 0.112-97.85 79.4-177.138 177.248-177.248zM431.054 793.58h31.15c-0.432 2.080-0.894 4.154-1.392 6.22-2.666 10.362-4.11 21-4.3 31.698-0.014 8.077 1.504 16.084 4.48 23.594 2.982 7.605 7.47 14.529 13.196 20.357s12.57 10.437 20.122 13.553c8.006 3.315 16.596 4.983 25.262 4.905 32.302 0 54.428-17.125 60.7-46.985 0.584-2.643 0.458-5.394-0.366-7.972s-2.316-4.893-4.326-6.707c-2.010-1.812-4.464-3.059-7.112-3.614s-5.396-0.399-7.966 0.453c-2.568 0.852-4.864 2.369-6.656 4.397s-3.014 4.494-3.544 7.148c-2.044 9.724-7.452 22.654-30.722 22.654-4.582 0.069-9.13-0.785-13.374-2.512-3.866-1.554-7.366-3.901-10.272-6.889-2.816-2.912-5.022-6.354-6.494-10.127-1.53-3.901-2.31-8.055-2.3-12.244 0.198-8.274 1.35-16.495 3.444-24.502 1.076-4.461 1.992-8.939 2.788-13.415h33.942c4.016-0.068 7.846-1.711 10.662-4.576s4.394-6.721 4.394-10.738c0-4.017-1.578-7.874-4.394-10.738s-6.646-4.508-10.662-4.576h-30.798c0.264-7.88 0.094-15.768-0.512-23.628l-0.036-0.462c-0.77-9.696-3.134-19.2-7-28.126 14.272 1.334 28.636-1.434 41.398-7.972 10.398-5.348 22.478-6.41 33.65-2.958l10.59 3.25c3.86 1.108 8.002 0.658 11.534-1.258 3.53-1.914 6.168-5.14 7.346-8.982 1.172-3.838 0.792-7.986-1.060-11.548s-5.030-6.256-8.846-7.5l-10.59-3.246c-18.784-5.802-39.094-4.018-56.58 4.972-7.954 4.076-16.944 5.684-25.816 4.616l-30.006-3.58c-6.060-0.726-11.964 2.212-15.040 7.478-3.076 5.264-2.734 11.852 0.864 16.774l8.084 11.032c6.306 8.616 10.094 18.814 10.938 29.456l0.036 0.452c0.546 7.068 0.682 14.156 0.408 21.23h-34.824c-4.016 0.068-7.846 1.711-10.662 4.576s-4.394 6.721-4.394 10.738c0 4.017 1.578 7.874 4.394 10.738s6.646 4.508 10.662 4.576v-0.009zM113.838 506.99h665.062v-570.99h-665.062v570.99zM887.882 638.2h-227.436c-12.984-13.512-27.668-25.278-43.686-35.004h11.204c8.46 0 15.314-6.854 15.314-15.314 0-8.462-6.854-15.314-15.314-15.314h-245.024c-8.46 0-15.314 6.852-15.314 15.314 0 8.46 6.854 15.314 15.314 15.314h24.33c-16.016 9.728-30.7 21.494-43.686 35.004h-127.69l-99.744-100.636h651.986l99.746 100.636zM809.542-42.552l100.634 99.746v558.454l-100.634-99.736v-558.464z" />
<glyph unicode="&#xe91e;" glyph-name="frame_21" d="M906.666 960.020h-789.334c-31.112-0.023-60.943-12.392-82.942-34.391s-34.369-51.83-34.391-82.942v-576c0.023-31.112 12.392-60.942 34.391-82.942s51.83-34.368 82.942-34.392h53.333v-181.332c0.006-6.326 1.885-12.506 5.402-17.764s8.512-9.354 14.356-11.774c5.844-2.42 12.274-3.054 18.476-1.82 6.204 1.232 11.904 4.274 16.38 8.744l203.946 203.946h477.44c31.112 0.024 60.942 12.392 82.942 34.392s34.368 51.83 34.392 82.942v576c-0.024 31.112-12.392 60.943-34.392 82.942s-51.83 34.369-82.942 34.391zM599.040 367.336c0-26.026-21.334-47.36-47.788-47.36h-78.506c-23.040 0-47.786 17.068-47.786 55.040v23.040h174.080v-30.72zM633.6 493.63c-17.92-14.506-29.44-33.28-33.28-52.906h-176.214c-2.986 19.2-13.654 37.12-31.146 50.772-23.342 18.102-42.104 41.432-54.776 68.11-12.672 26.68-18.902 55.964-18.184 85.49 2.132 101.548 87.040 185.601 189.012 186.881 51.628 1.28 101.12-18.773 138.24-55.467 18.052-17.582 32.38-38.618 42.13-61.856 9.748-23.236 14.72-48.198 14.618-73.398 0-57.6-25.558-111.36-70.4-147.626z" />
<glyph unicode="&#xe91f;" glyph-name="frame_22" d="M256 490.674l234.666 384.001 234.668-384.001h-469.334zM573.020 575.998l-82.346 134.826-82.774-134.826h165.12zM725.35 405.35c-106.24 0-192-85.76-192-192s85.76-192 192-192c106.24 0 192 85.76 192 192s-85.76 192-192 192zM618.674 213.334c0-58.88 47.788-106.668 106.668-106.668s106.666 47.788 106.666 106.668c0 58.88-47.786 106.666-106.666 106.666s-106.668-47.786-106.668-106.666zM106.675 42.666h341.333v341.334h-341.333v-341.334zM362.666 298.674h-170.666v-170.666h170.666v170.666z" />
<glyph unicode="&#xe920;" glyph-name="frame_25" horiz-adv-x="1026" d="M874.546 943.5l133.138-133.139c22.19-22.19 22.19-58.035 0-80.225l-104.12-104.12-213.364 213.363 104.122 104.121c10.81 10.81 25.034 16.5 39.826 16.5 14.794 0 29.018-5.121 40.398-16.5zM0 149.362v-213.362h213.362l629.28 629.278-213.364 213.363-629.278-629.279zM166.132 49.664h-52.345v52.346l515.485 515.484 52.344-52.344-515.484-515.486z" />
<glyph unicode="&#xe921;" glyph-name="frame_26" horiz-adv-x="1026" d="M923.154 857.154h-819.199c-56.474 0-102.4-43.059-102.4-96v-627.2c0-52.94 45.926-96 102.4-96h819.199c56.474 0 102.4 43.060 102.4 96v627.2c0 52.941-45.926 96-102.4 96zM923.154 140.354l-819.199 0.564v613.836l819.199-0.562v-613.838z" />
<glyph unicode="&#xe922;" glyph-name="frame_27" horiz-adv-x="844" d="M843.298 598.596h-240.942v361.414h-361.414v-361.414h-240.942l421.65-421.65 421.648 421.65zM361.456 477.89v361.414h120.472v-361.414h70.476l-130.712-130.71-130.712 130.71h70.476zM843.298-63.974v120.47h-843.298v-120.47h843.298z" />
<glyph unicode="&#xe923;" glyph-name="frame_28" d="M0 408.616h292.572v-472.616h438.856v472.616h292.572l-512 551.384-512-551.384z" />
<glyph unicode="&#xe924;" glyph-name="frame_29" d="M1023.98 521.144h-292.57v438.856h-438.858v-438.856h-292.572l512-512 512 512z" />
<glyph unicode="&#xe925;" glyph-name="frame_30" d="M438.999 959.98v-292.001h-438.002v-438.003h438.001v-292l511.002 511.002-511.002 511.001z" />
<glyph unicode="&#xe926;" glyph-name="frame_31" d="M585.001-63.98v292.002h438.003v438.003h-438.003v292l-511.001-511.002 511.001-511.002z" />
<glyph unicode="&#xe927;" glyph-name="frame_32" d="M1024 755.2c0 56.32-51.2 102.4-113.778 102.4h-56.888v102.4h-113.778v-102.4h-455.112v102.4h-113.777v-102.4h-56.889c-63.147 0-113.209-46.080-113.209-102.4l-0.569-716.8c0-56.32 50.631-102.4 113.778-102.4h796.444c62.578 0 113.778 46.080 113.778 102.4v716.8zM341.378 499.2v-102.4h-113.778v102.4h113.778zM113.725 652.64v102.4h796.445v-102.4h-796.445zM910.17 550.56v-512h-796.445v512h796.445zM682.674 396.8v102.4h113.778v-102.4h-113.778zM568.852 396.8v102.4h-113.776v-102.4h113.776z" />
<glyph unicode="&#xe928;" glyph-name="fullscreen" d="M298.668 533.336h-85.334v213.334h213.334v-85.334h-128v-128zM213.334 362.67h85.334v-128h128v-85.334h-213.334v213.334zM725.334 234.67h-128v-85.334h213.334v213.334h-85.334v-128zM597.334 661.336v85.334h213.334v-213.334h-85.334v128h-128z" />
<glyph unicode="&#xe929;" glyph-name="home" d="M85.415 426.626l426.667 384.001 426.666-384.001h-128v-341.332h-256v256h-85.332v-256h-256v341.332h-128.001zM725.502 503.818l-213.334 192-213.334-192v-333.228h85.334v256h256v-256h85.334v333.228z" />
<glyph unicode="&#xe92a;" glyph-name="image" d="M810.666 832h-597.332c-46.934 0-85.334-38.4-85.334-85.334v-597.332c0-46.934 38.4-85.334 85.334-85.334h597.332c46.934 0 85.334 38.4 85.334 85.334v597.332c0 46.934-38.4 85.334-85.334 85.334zM810.666 746.666v-597.332h-597.332v597.332h597.332zM475.306 288.88l128 165.12 164.694-219.306h-512l128 164.692 91.306-110.506z" />
<glyph unicode="&#xe92b;" glyph-name="logout" d="M213.334 832h597.332c46.934 0 85.334-38.4 85.334-85.334v-597.332c0-46.934-38.4-85.334-85.334-85.334h-597.332c-47.361 0-85.334 38.4-85.334 85.334v170.666h85.334v-170.666h597.332v597.332h-597.332v-170.666h-85.334v170.666c0 46.934 37.973 85.334 85.334 85.334zM490.666 234.666l-60.16 60.16 110.080 110.508h-412.586v85.332h412.586l-110.080 110.508 60.16 60.16 213.334-213.334-213.334-213.334z" />
<glyph unicode="&#xe92c;" glyph-name="location_city" d="M639.996 725.398v-256h256v-426.666h-768.001v597.334h256.001v85.332l128 128 128-128zM213.298 128.062h85.334v85.334h-85.334v-85.334zM298.632 298.668h-85.334v85.334h85.334v-85.334zM213.298 469.462h85.334v85.334h-85.334v-85.334zM554.626 128.062h-85.334v85.334h85.334v-85.334zM469.292 298.668h85.334v85.334h-85.334v-85.334zM554.626 469.462h-85.334v85.334h85.334v-85.334zM469.292 640.068h85.334v85.334h-85.334v-85.334zM810.628 128.062h-85.332v85.334h85.332v-85.334zM725.296 298.668h85.332v85.334h-85.332v-85.334z" />
<glyph unicode="&#xe92d;" glyph-name="location_on" d="M511.956 874.593c-165.12 0-298.666-133.547-298.666-298.667 0-224 298.666-554.666 298.666-554.666s298.666 330.666 298.666 554.666c0 165.12-133.546 298.667-298.666 298.667zM298.584 575.846c0 117.76 95.572 213.333 213.332 213.333 117.762 0 213.334-95.573 213.334-213.333 0-122.88-122.88-306.774-213.334-421.546-88.746 113.92-213.332 299.946-213.332 421.546zM405.294 575.922c0 58.912 47.756 106.668 106.666 106.668 38.108 0 73.322-20.332 92.376-53.334s19.054-73.664 0-106.666c-19.054-33.004-54.268-53.334-92.376-53.334-58.91 0-106.666 47.756-106.666 106.666z" />
<glyph unicode="&#xe92e;" glyph-name="markunread_mailbox_one" d="M853.292 661.398h-426.666v-85.334h426.666v-512h-682.667v512h85.333v-170.666h85.334v341.332h256v170.667h-341.334v-255.999h-85.333c-46.933 0-85.333-38.4-85.333-85.334v-512c0-46.934 38.4-85.334 85.333-85.334h682.667c46.934 0 85.334 38.4 85.334 85.334v512c0 46.934-38.4 85.334-85.334 85.334z" />
<glyph unicode="&#xe92f;" glyph-name="markunread_mailbox" d="M853.286 661.31h-426.668v-85.334h426.668v-512h-682.667v512h85.333v-170.666h85.334v341.332h256v170.667h-341.334v-255.999h-85.333c-46.933 0-85.333-38.4-85.333-85.334v-512c0-46.934 38.4-85.334 85.333-85.334h682.667c46.932 0 85.332 38.4 85.332 85.334v512c0 46.934-38.4 85.334-85.332 85.334z" />
<glyph unicode="&#xe930;" glyph-name="menu" d="M0 789.333v170.667h1024v-170.667h-1024zM0 362.668h1024v170.666h-1024v-170.666zM0-64h1024v170.666h-1024v-170.666z" />
<glyph unicode="&#xe931;" glyph-name="not_interested" d="M511.994 874.672c235.52 0 426.668-191.146 426.668-426.666s-191.148-426.668-426.668-426.668c-235.52 0-426.666 191.148-426.666 426.668s191.146 426.666 426.666 426.666zM511.998 106.694c78.932 0 151.466 26.88 209.066 72.106l-478.294 478.294c-45.226-57.6-72.106-130.134-72.106-209.066 0-188.588 152.746-341.334 341.334-341.334zM302.914 717.238l478.294-478.294c45.226 57.6 72.106 130.134 72.106 209.066 0 188.588-152.746 341.334-341.334 341.334-78.932 0-151.466-26.88-209.066-72.106z" />
<glyph unicode="&#xe932;" glyph-name="notification" d="M826.398 251.841l104.911-104.911v-52.456h-839.291v52.456l104.911 104.911v262.28c0 161.564 86.028 295.851 236.051 331.52v35.67c0 43.538 35.145 78.684 78.682 78.684 43.539 0 78.684-35.145 78.684-78.684v-35.67c150.548-35.67 236.051-170.481 236.051-331.52v-262.28zM511.667-62.81c57.701 0 104.911 47.21 104.911 104.911h-209.822c0-57.701 47.21-104.911 104.911-104.911zM301.884 199.469h419.646v314.733c0 130.092-79.209 236.053-209.822 236.053-130.615 0-209.824-105.961-209.824-236.053v-314.733z" />
<glyph unicode="&#xe933;" glyph-name="notifications_off" d="M653.014 501.334v-4.268l85.332-85.332v89.6c0 130.986-69.546 240.64-192 269.653v29.013c0 35.413-28.586 64-64 64-35.412 0-64-28.587-64-64v-29.013c-8.622-2.156-16.942-5.219-24.96-8.171-1.504-0.554-2.996-1.104-4.48-1.643l69.974-69.973c1.86 0.206 3.722 0.438 5.588 0.672h0.004c5.836 0.726 11.734 1.462 17.874 1.462 106.24 0 170.668-86.188 170.668-192zM567.68 117.334c0-46.934-38.4-85.334-85.334-85.334-46.932 0-85.332 38.4-85.332 85.334h170.666zM201.174 827.778l-60.16-60.16 119.894-119.894c-22.188-42.666-34.56-92.586-34.56-146.346v-213.334l-85.334-85.332v-42.668h607.574l74.24-74.24 60.158 60.16-681.812 681.814zM311.68 245.378h341.334v10.24l-326.826 326.826c-9.388-24.746-14.508-52.052-14.508-81.066v-256z" />
<glyph unicode="&#xe934;" glyph-name="pause_circle_outline" d="M85.334 448.002c0-235.52 191.146-426.666 426.666-426.666s426.666 191.146 426.666 426.666c0 235.52-191.146 426.667-426.666 426.667s-426.666-191.147-426.666-426.667zM469.334 277.336h-85.334v341.334h85.334v-341.334zM512 106.67c-188.16 0-341.333 153.172-341.333 341.332s153.173 341.334 341.333 341.334c188.16 0 341.334-153.174 341.334-341.334s-153.174-341.332-341.334-341.332zM640 277.336h-85.334v341.334h85.334v-341.334z" />
<glyph unicode="&#xe935;" glyph-name="person" d="M511.108 958.104c141.178 0 255.527-114.348 255.527-255.526s-114.349-255.527-255.527-255.527c-141.178 0-255.527 114.349-255.527 255.527s114.349 255.526 255.527 255.526zM638.81 702.479c0 70.27-57.494 127.763-127.762 127.763-70.271 0-127.762-57.493-127.762-127.763s57.492-127.762 127.762-127.762 127.762 57.492 127.762 127.762zM894.287 63.764c-12.775 45.355-210.808 127.762-383.289 127.762-171.84 0-368.596-81.768-383.289-127.762h766.578zM0.006 63.864c0 169.924 340.489 255.525 511.052 255.525 170.565 0 511.054-85.601 511.054-255.525v-127.764h-1022.106v127.764z" />
<glyph unicode="&#xe936;" glyph-name="pin_lick" d="M874.6 746.654v-97.28c25.174-14.934 42.668-41.814 42.668-73.386v-256c0-31.574-17.494-58.454-42.668-73.388v-97.28c0-46.932-38.4-85.332-85.332-85.332h-597.334c-47.36 0-85.333 38.4-85.333 85.332v597.334c0 46.933 37.973 85.333 85.333 85.333h597.334c46.932 0 85.332-38.4 85.332-85.333zM831.864 319.972v256h-298.666v-256h298.666zM191.99 149.242v597.334h597.334v-85.334h-256c-46.934 0-85.334-38.4-85.334-85.334v-256c0-46.932 38.4-85.332 85.334-85.332h256v-85.334h-597.334zM597.202 447.968c0 35.346 28.652 64 64 64 35.346 0 64-28.654 64-64s-28.654-64-64-64c-35.348 0-64 28.654-64 64z" />
<glyph unicode="&#xe937;" glyph-name="play_circle_outline" d="M512 874.669c235.52 0 426.666-191.147 426.666-426.667s-191.146-426.666-426.666-426.666c-235.52 0-426.667 191.146-426.667 426.666s191.147 426.667 426.667 426.667zM426.666 256.002l256 192-256 192v-384zM170.666 448.002c0-188.16 153.174-341.332 341.334-341.332s341.332 153.172 341.332 341.332c0 188.16-153.172 341.334-341.332 341.334s-341.334-153.174-341.334-341.334z" />
<glyph unicode="&#xe938;" glyph-name="refresh" d="M752.848 689.062c-61.866 61.866-146.772 100.266-241.066 100.266-188.586 0-340.907-152.746-340.907-341.334 0-188.586 152.321-341.332 340.907-341.332 159.146 0 291.84 108.8 329.814 256h-88.748c-34.986-99.414-129.706-170.668-241.066-170.668-141.226 0-256 114.774-256 256 0 141.228 114.774 256 256 256 70.826 0 133.974-29.44 180.054-75.946l-137.388-137.386h298.666v298.666l-100.266-100.266z" />
<glyph unicode="&#xe939;" glyph-name="replay_10" d="M512 874.669l-213.334-213.333 213.334-213.334v170.668c141.226 0 256-114.774 256-256 0-141.228-114.774-256-256-256-141.228 0-256 114.772-256 256h-85.334c0-188.588 152.746-341.334 341.334-341.334 188.586 0 341.332 152.746 341.332 341.334 0 188.586-152.746 341.332-341.332 341.332v170.667zM428.802 234.65h36.266v182.186h-3.84l-75.52-26.88v-29.44l43.094 13.226v-139.092zM647.682 309.776c0-13.654-1.28-25.6-4.268-34.986-2.986-9.388-7.252-17.92-12.372-24.32s-11.948-11.094-19.2-14.080c-7.254-2.988-15.788-4.268-25.174-4.268s-17.494 1.28-25.174 4.268c-7.68 2.986-14.080 7.68-19.626 14.080s-9.814 14.506-12.8 24.32c-2.986 9.812-4.694 21.332-4.694 34.986v31.574c0 13.652 1.28 25.6 4.268 34.986 2.986 9.386 7.252 17.92 12.372 24.32s11.948 11.094 19.2 14.080c7.254 2.986 15.788 4.266 25.174 4.266s17.494-1.28 25.174-4.266c7.68-2.986 14.080-7.68 19.626-14.080s9.814-14.506 12.8-24.32c2.986-9.814 4.694-21.334 4.694-34.986v-31.574zM609.702 366.972c1.28-5.546 1.706-12.372 1.706-20.48h-0.426v-41.386c0-8.106-0.854-14.934-1.708-20.48-0.852-5.546-2.56-10.24-4.692-13.654-2.134-3.412-5.12-5.972-8.108-7.252-2.986-1.28-6.826-2.134-10.666-2.134s-7.254 0.854-10.666 2.134c-3.414 1.28-5.974 3.84-8.108 7.252-2.132 3.414-3.84 8.108-5.12 13.654s-1.706 12.374-1.706 20.48v41.386c0 8.108 0.426 14.934 1.706 20.48 1.28 5.548 2.988 9.814 5.12 13.228 2.134 3.412 5.12 5.972 8.108 7.252 2.986 1.28 6.826 2.134 10.666 2.134s7.254-0.854 10.666-2.134c3.414-1.28 5.974-3.84 8.108-7.252 2.132-3.414 3.84-7.68 5.12-13.228z" />
<glyph unicode="&#xe93a;" glyph-name="replay" d="M511.97 703.948v170.666l-213.334-213.334 213.334-213.332v170.666c141.226 0 256-114.774 256-256s-114.774-256-256-256c-141.228 0-256 114.774-256 256h-85.334c0-188.586 152.746-341.334 341.334-341.334 188.586 0 341.332 152.748 341.332 341.334s-152.746 341.334-341.332 341.334z" />
<glyph unicode="&#xe93b;" glyph-name="scale" d="M511.958 874.6c-235.52 0-426.666-191.148-426.666-426.668s191.146-426.666 426.666-426.666c235.52 0 426.668 191.146 426.668 426.666s-191.148 426.668-426.668 426.668zM170.59 447.85c0 26.026 3.413 51.626 8.96 75.946l203.948-203.946v-42.666c0-46.934 38.4-85.334 85.332-85.334v-82.346c-167.68 21.332-298.24 164.692-298.24 338.346zM682.226 277.176c38.4 0 69.972-25.174 81.066-59.734 55.466 60.588 90.026 141.654 90.026 230.4 0 142.934-88.746 265.814-213.76 316.161v-17.493c0-46.934-38.4-85.334-85.332-85.334h-85.334v-85.334c0-23.466-19.2-42.666-42.666-42.666h-85.334v-85.334h256c23.466 0 42.666-19.2 42.666-42.666v-128h42.668z" />
<glyph unicode="&#xe93c;" glyph-name="search" d="M638.532 351.864h33.708l212.906-213.334-63.574-63.572-213.332 212.906v33.706l-11.52 11.948c-48.64-41.814-111.788-66.988-180.48-66.988-153.174 0-277.334 124.16-277.334 277.334s124.16 277.333 277.334 277.333c153.172 0 277.332-124.159 277.332-277.333 0-68.694-25.172-131.84-66.986-180.48l11.946-11.52zM224.218 543.798c0-106.24 85.76-192 192-192s192 85.76 192 192c0 106.24-85.76 192-192 192s-192-85.76-192-192z" />
<glyph unicode="&#xe93d;" glyph-name="settings" d="M832.094 448.002c0-14.506-1.28-28.16-2.986-41.812l90.026-70.4c8.106-6.4 10.24-17.92 5.12-27.308l-85.334-147.626c-3.84-6.826-11.092-10.666-18.346-10.666-2.56 0-5.12 0.426-7.68 1.28l-106.24 42.666c-22.186-16.64-46.080-31.146-72.106-41.814l-16.214-113.066c-1.28-10.24-10.24-17.92-20.906-17.92h-170.668c-10.666 0-19.626 7.68-20.906 17.92l-16.214 113.066c-26.026 10.668-49.92 24.748-72.106 41.814l-106.24-42.666c-2.134-0.854-4.694-1.28-7.254-1.28-7.68 0-14.933 3.84-18.773 10.666l-85.333 147.626c-5.12 9.388-2.987 20.908 5.12 27.308l90.027 70.4c-1.707 13.652-2.987 27.732-2.987 41.812s1.28 28.16 2.987 41.814l-90.027 70.4c-8.107 6.4-10.667 17.92-5.12 27.306l85.333 147.628c3.84 6.826 11.093 10.666 18.347 10.666 2.56 0 5.12-0.426 7.68-1.28l106.24-42.666c22.186 16.64 46.080 31.146 72.106 41.812l16.214 113.067c1.28 10.24 10.24 17.92 20.906 17.92h170.668c10.666 0 19.626-7.68 20.906-17.92l16.214-113.067c26.026-10.666 49.92-24.746 72.106-41.812l106.24 42.666c2.134 0.854 4.694 1.28 7.254 1.28 7.68 0 14.932-3.84 18.772-10.666l85.334-147.628c5.12-9.386 2.986-20.906-5.12-27.306l-90.026-70.4c1.706-13.654 2.986-27.306 2.986-41.814zM746.76 448.002c0 8.96-0.426 17.92-2.132 31.148l-5.974 48.212 37.974 29.868 45.652 36.266-29.866 51.626-54.186-21.76-45.228-18.346-38.826 29.866c-17.066 12.8-34.134 22.614-52.48 30.294l-45.226 18.346-14.934 105.814h-59.306l-8.534-57.6-6.826-48.214-45.228-18.346c-17.492-7.254-34.986-17.494-53.332-31.146l-38.4-29.014-44.374 17.92-54.186 21.76-29.868-51.626 46.080-35.84 37.974-29.868-5.974-48.212c-1.28-12.8-2.132-22.614-2.132-31.148 0-8.532 0.852-18.346 2.132-31.572l5.974-48.214-37.974-29.866-46.080-35.84 29.868-51.628 54.186 21.76 45.226 18.348 38.828-29.868c17.066-12.8 34.132-22.612 52.48-30.292l45.226-18.348 14.934-105.812h59.732l8.534 57.6 6.826 48.212 45.228 18.348c17.492 7.252 34.986 17.492 53.332 31.146l38.4 29.014 44.374-17.92 54.186-21.76 29.868 51.626-46.080 35.84-37.974 29.866 5.974 48.214c1.28 12.8 2.132 22.186 2.132 31.146zM512.094 618.67c94.294 0 170.666-76.374 170.666-170.668 0-94.292-76.372-170.666-170.666-170.666s-170.666 76.374-170.666 170.666c0 94.294 76.372 170.668 170.666 170.668zM426.76 448.002c0-46.932 38.4-85.332 85.334-85.332s85.334 38.4 85.334 85.332c0 46.934-38.4 85.334-85.334 85.334s-85.334-38.4-85.334-85.334z" />
<glyph unicode="&#xe93e;" glyph-name="signal_tower" d="M321.072 917.578l-42.422 42.422c-128.642-128.672-128.642-338.028 0-466.7l42.422 42.422c-105.234 105.264-105.234 276.592 0 381.856zM745.35 960l-42.422-42.422c105.234-105.264 105.234-276.592 0-381.856l42.422-42.422c128.642 128.672 128.642 338.028 0 466.7zM405.946 832.721l-42.422 42.422c-39.61-39.61-61.436-92.314-61.436-148.477s21.826-108.868 61.436-148.476l42.422 42.422c-28.272 28.272-43.858 65.948-43.858 106.054s15.586 77.785 43.858 106.055zM660.476 875.143l-42.422-42.422c28.272-28.272 43.858-65.948 43.858-106.055s-15.586-77.784-43.858-106.054l42.422-42.422c39.61 39.61 61.436 92.314 61.436 148.476s-21.826 108.869-61.436 148.477zM512 816.667c-49.628 0-90-40.37-90-90.001 0-49.628 40.372-90 90-90s90 40.372 90 90c0 49.629-40.372 90.001-90 90.001zM773.32-3.984l-202.466 592.742c-18.594-7.982-38.618-12.098-58.854-12.092-20.236-0.004-40.26 4.11-58.854 12.092l-202.466-592.742h-98.68v-60h720v60h-98.68zM460.276 420.016h103.448l33.622-98.654-85.346-81.79-85.346 81.79 33.622 98.654zM404.974 259.026l63.662-61.010-127.324-122.018 63.662 183.028zM346.666-3.984l165.334 160.444 165.334-160.444h-330.668zM555.364 198.014l63.662 61.010 63.662-183.028-127.324 122.018z" />
<glyph unicode="&#xe93f;" glyph-name="skip_next" d="M256 192l362.666 256-362.666 256v-512zM341.334 539.334l129.28-91.308-129.28-91.306v182.614zM768 704h-85.334v-512h85.334v512z" />
<glyph unicode="&#xe940;" glyph-name="star_border" d="M938.742 533.348v170.668c0 46.932-38.4 85.333-85.334 85.333h-682.666c-46.933 0-84.907-38.401-84.907-85.333v-170.668c46.933 0 84.907-38.4 84.907-85.332 0-46.934-37.973-85.334-85.333-85.334v-170.666c0-46.934 38.4-85.334 85.333-85.334h682.666c46.934 0 85.334 38.4 85.334 85.334v170.666c-46.934 0-85.334 38.4-85.334 85.334 0 46.932 38.4 85.332 85.334 85.332zM853.466 595.564c-50.774-29.44-85.334-84.908-85.334-147.628s34.56-118.186 85.334-147.626v-108.374h-682.667v108.374c50.773 29.44 85.333 84.906 85.333 147.626 0 63.148-34.134 118.188-84.907 147.628l-0.427 108.372h682.667v-108.372zM512.060 357.554l-125.014-80.214 37.546 143.788-114.772 93.866 148.052 8.96 54.188 137.386 53.76-137.812 148.052-8.96-114.772-93.868 37.972-143.36-125.012 80.214z" />
<glyph unicode="&#xe941;" glyph-name="star" d="M511.996 201.812l263.68-159.146-69.972 299.946 232.96 201.814-306.774 26.028-119.894 282.879-119.892-282.879-306.774-26.028 232.96-201.814-69.974-299.946 263.68 159.146z" />
<glyph unicode="&#xe942;" glyph-name="triangle" d="M255.996 490.6l234.668 384 234.666-384h-469.334zM573.016 575.972l-82.348 134.828-82.772-134.828h165.12zM725.394 405.202c-106.24 0-192-85.76-192-192s85.76-192 192-192c106.24 0 192 85.76 192 192s-85.76 192-192 192zM618.696 213.336c0-58.88 47.788-106.666 106.668-106.666s106.666 47.786 106.666 106.666c0 58.88-47.786 106.666-106.666 106.666s-106.668-47.786-106.668-106.666zM106.695 42.664h341.333v341.332h-341.333v-341.332zM362.66 298.6h-170.666v-170.668h170.666v170.668z" />
<glyph unicode="&#xe943;" glyph-name="unfold" d="M647.254 576l-135.254 135.254-135.254-135.254-60.586 60.16 195.84 195.84 195.414-195.84-60.16-60.16zM376.746 320l135.254-135.254 135.254 135.254 60.586-60.16-195.84-195.84-195.414 195.84 60.16 60.16z" />
<glyph unicode="&#xe944;" glyph-name="user" d="M512 874.6c-235.6 0-426.6-191-426.6-426.6s191-426.6 426.6-426.6 426.6 191 426.6 426.6-191 426.6-426.6 426.6zM512 106.6c-79.4 0-152.4 27.4-210.4 73.4 18.4 38.4 130.2 76 210.4 76s192.4-37.6 210.4-76c-58-46-131-73.4-210.4-73.4zM783.4 242c-61 74.2-209 99.4-271.4 99.4-62.2 0-210.4-25.2-271.4-99.4-43.6 57.2-70 128.4-70 206 0 188.2 153.2 341.4 341.4 341.4s341.4-153.2 341.4-341.4c0-77.6-26.6-149-70-206zM512 704c-82.8 0-149.4-66.6-149.4-149.4s66.6-149.4 149.4-149.4c82.8 0 149.4 66.6 149.4 149.4s-66.6 149.4-149.4 149.4zM512 490.6c-35.4 0-64 28.6-64 64s28.6 64 64 64c35.4 0 64-28.6 64-64s-28.6-64-64-64z" />
<glyph unicode="&#xe945;" glyph-name="users" d="M383.932 447.928c82.346 0 149.334 66.986 149.334 149.334 0 82.346-66.988 149.332-149.334 149.332s-149.334-66.986-149.334-149.332c0-82.348 66.988-149.334 149.334-149.334zM383.996 661.198c35.414 0 64-28.586 64-64s-28.586-64-64-64c-35.414 0-64 28.586-64 64s28.586 64 64 64zM203.484 234.594h182.614c-1.28-6.826-2.134-14.080-2.134-21.332v-64h-298.667v64c0 99.412 198.827 149.332 298.667 149.332 23.894 0 53.334-2.986 84.48-8.532-30.294-20.48-55.466-46.080-69.974-77.228-2.346 0-4.8 0.108-7.252 0.214-2.454 0.106-4.908 0.214-7.254 0.214-65.28 0-138.24-21.334-180.48-42.668zM703.964 341.192c-78.506 0-234.666-43.094-234.666-128v-64h469.332v64c0 84.906-156.16 128-234.666 128zM810.632 511.932c0-40.108-22.614-74.668-55.040-93.014-15.36-8.534-32.854-13.654-51.626-13.654-18.774 0-36.268 5.12-51.628 13.654-32.426 18.346-55.040 52.906-55.040 93.014 0 58.88 47.788 106.666 106.668 106.666s106.666-47.786 106.666-106.666z" />
<glyph unicode="&#xe946;" glyph-name="verified_user" d="M511.998 917.38l-383.999-170.666v-256c0-236.8 163.839-458.24 383.999-512 220.16 53.76 384 275.2 384 512v256l-384 170.666zM810.708 490.65c0-192.854-127.146-370.774-298.666-423.68-171.52 52.906-298.666 230.826-298.666 423.68v200.532l298.666 132.694 298.666-132.694v-200.532zM255.996 405.38l60.16 60.16 110.508-110.080 281.172 281.174 60.16-60.586-341.332-341.334-170.668 170.666z" />
<glyph unicode="&#xe947;" glyph-name="visibility_off" d="M200.102 681.566l-114.348 114.346 60.16 60.587 756.48-756.906-60.16-60.16-145.92 145.92c-57.172-22.614-119.466-34.986-184.32-34.986-213.332 0-395.52 132.692-469.333 320 32.853 84.052 87.893 156.586 157.441 211.2zM512.002 704.896c161.708 0 305.92-90.88 376.32-234.668-25.172-52.052-60.586-96.852-102.826-133.12l60.16-60.16c59.306 52.48 106.24 118.188 135.68 193.28-73.814 187.308-256 320.001-469.334 320.001-54.186 0-106.24-8.533-155.306-24.32l70.4-70.401c27.734 5.548 55.894 9.388 84.906 9.388zM466.352 656.278l88.32-88.32c24.32-10.666 43.946-30.292 54.614-54.612l88.32-88.32c3.412 14.506 5.972 29.866 5.972 45.652 0.428 105.814-85.76 191.574-191.572 191.574-15.788 0-30.72-2.134-45.654-5.974zM405.74 475.976l111.36-111.36c-1.706-0.426-3.414-0.854-5.12-0.854-58.88 0-106.666 47.788-106.666 106.668 0 1.066 0.106 1.92 0.214 2.772 0.106 0.854 0.212 1.708 0.212 2.774zM335.338 546.354l-74.666 74.666c-51.626-39.254-95.147-89.6-125.014-150.614 70.4-143.786 214.614-234.666 376.32-234.666 40.534 0 79.786 5.974 117.334 16.214l-41.814 41.812c-23.040-9.812-48.64-15.36-75.52-15.36-105.812 0-192 86.188-192 192 0 26.88 5.546 52.48 15.36 75.948z" />
<glyph unicode="&#xe948;" glyph-name="visibility" d="M42.66 448.004c73.813 187.306 256 319.999 469.334 319.999 213.332 0 395.52-132.693 469.332-319.999-73.812-187.308-256-320-469.332-320-213.334 0-395.521 132.692-469.334 320zM888.292 448.084c-70.4 143.786-214.614 234.666-376.32 234.666-161.708 0-305.92-90.88-376.32-234.666 70.4-143.788 214.612-234.668 376.32-234.668 161.706 0 305.92 90.88 376.32 234.668zM511.974 554.746c58.88 0 106.666-47.788 106.666-106.668s-47.786-106.666-106.666-106.666c-58.88 0-106.668 47.786-106.668 106.666s47.788 106.668 106.668 106.668zM319.992 447.998c0 105.812 86.186 192 192 192 105.812 0 192-86.188 192-192 0-105.814-86.188-192-192-192-105.814 0-192 86.186-192 192z" />
<glyph unicode="&#xe949;" glyph-name="volume_up" d="M597.334 734.276v87.893c171.092-38.827 298.666-191.573 298.666-374.187 0-182.612-127.574-335.36-298.666-374.186v87.894c123.306 36.692 213.332 151.040 213.332 286.292 0 135.254-90.026 249.6-213.332 286.294zM128 320.002v256h170.666l213.334 213.334v-682.666l-213.334 213.332h-170.666zM426.666 312.662v270.508l-92.586-92.588h-120.746v-85.332h120.746l92.586-92.588zM704 448.056c0 75.52-43.52 140.374-106.666 171.946v-343.466c63.146 31.146 106.666 96 106.666 171.52z" />
<glyph unicode="&#xe94a;" glyph-name="info" d="M511.574 874.667c235.946 0 427.092-191.147 427.092-426.667s-191.146-426.666-427.092-426.666c-235.52 0-426.241 191.146-426.241 426.666s190.721 426.667 426.241 426.667zM554.666 405.334v256h-85.332v-256h85.332zM554.666 234.666v85.334h-85.332v-85.334h85.332zM170.667 448c0-188.586 152.747-341.334 341.333-341.334s341.334 152.748 341.334 341.334c0 188.586-152.748 341.333-341.334 341.333s-341.333-152.747-341.333-341.333z" />
<glyph unicode="&#xe94b;" glyph-name="error" d="M512 874.667c235.52 0 426.666-191.147 426.666-426.667s-191.146-426.666-426.666-426.666c-235.52 0-426.667 191.146-426.667 426.666s191.147 426.667 426.667 426.667zM170.667 448c0-78.934 26.88-151.466 72.107-209.066l478.292 478.292c-57.6 45.227-130.132 72.107-209.066 72.107-188.586 0-341.333-152.747-341.333-341.333zM302.934 178.774c57.6-45.228 130.132-72.108 209.066-72.108 188.586 0 341.334 152.748 341.334 341.334 0 78.934-26.88 151.466-72.108 209.066l-478.292-478.292z" />
<glyph unicode="&#xe94c;" glyph-name="component_1" d="M533.182 959.998c-270.56 0-490.679-220.12-490.679-490.68s220.119-490.678 490.679-490.678c13.69 0 24.8 11.11 24.8 24.798 0 13.69-11.11 24.8-24.8 24.8-243.206 0-441.080 197.874-441.080 441.080 0 243.208 197.874 441.081 441.080 441.081s441.056-197.873 441.056-441.081c0-200.254-135.082-375.684-328.492-426.572-13.242-3.498-21.154-17.062-17.682-30.306 3.496-13.242 17.062-21.154 30.304-17.682 215.184 56.618 365.468 251.764 365.468 474.536 0 270.584-220.118 490.704-490.654 490.704zM403.084 258.5h-147.63c-13.688 0-24.798-11.11-24.798-24.8 0-13.688 11.11-24.798 24.798-24.798h147.63c52.748 0 95.676 42.926 95.676 95.674s-42.928 95.676-95.676 95.676h-156.062c-25.394 0-46.076 20.658-46.076 46.078 0 25.418 20.658 46.076 46.076 46.076 52.748 0 95.676 42.928 95.676 95.676s-42.928 95.676-95.676 95.676h-23.558c-13.69 0-24.8-11.11-24.8-24.8 0-13.688 11.11-24.798 24.8-24.798h23.558c25.396 0 46.078-20.658 46.078-46.078 0-25.418-20.658-46.076-46.078-46.076-52.747 0-95.675-42.928-95.675-95.676s42.928-95.676 95.675-95.676h156.062c25.396 0 46.078-20.658 46.078-46.078 0-25.418-20.658-46.076-46.078-46.076zM604.034 374.040h169.006c25.396 0 46.078-20.658 46.078-46.078 0-13.688 11.11-24.798 24.8-24.798 13.688 0 24.798 11.11 24.798 24.798 0 52.748-42.926 95.676-95.676 95.676h-169.006c-25.394 0-46.078 20.658-46.078 46.078 0 25.418 20.658 46.076 46.078 46.076h77.572c52.748 0 95.676 42.928 95.676 95.676 0 25.394 20.658 46.078 46.076 46.078 13.69 0 24.8 11.11 24.8 24.798 0 13.69-11.11 24.8-24.8 24.8-52.748 0-95.674-42.928-95.674-95.676 0-25.394-20.658-46.076-46.078-46.076h-77.572c-52.748 0-95.676-42.928-95.676-95.676s42.928-95.676 95.676-95.676zM670.966 825.238c0 13.689-11.11 24.799-24.798 24.799-13.69 0-24.8-11.11-24.8-24.799 0-25.395-20.658-46.077-46.076-46.077h-90.27c-25.394 0-46.078 20.658-46.078 46.077 0 13.689-11.11 24.799-24.798 24.799-13.69 0-24.8-11.11-24.8-24.799 0-52.748 42.928-95.676 95.676-95.676h90.27c52.748 0 95.674 42.928 95.674 95.676z" />
<glyph unicode="&#xe94d;" glyph-name="component_2" d="M506.542 845.295c12.25 0 22.19 10.019 22.19 22.365v69.978c0 12.345-9.94 22.364-22.19 22.364s-22.192-10.019-22.192-22.364v-69.978c0-12.345 9.942-22.365 22.192-22.365zM649.682 198.27h-181.748c-12.25 0-22.192-10.018-22.192-22.364 0-12.344 9.942-22.364 22.192-22.364h159.556v-50.902c0-67.204-54.258-121.886-120.944-121.886s-120.944 54.682-120.944 121.886v73.266c0 12.346-9.942 22.364-22.19 22.364-12.25 0-22.192-10.018-22.192-22.364v-73.266c0-91.872 74.164-166.614 165.326-166.614s165.326 74.742 165.326 166.614v73.266c0 12.346-9.942 22.364-22.19 22.364zM227.798 760.556c8.676-8.722 8.676-22.88 0-31.624-4.328-4.36-10.008-6.552-15.69-6.552-5.68 0-11.362 2.192-15.689 6.552l-49.354 49.739c-8.655 8.722-8.655 22.879 0 31.623 8.655 8.722 22.702 8.722 31.379 0l49.354-49.739zM90.165 470.378h-67.973c-12.25 0-22.191-10.020-22.191-22.364 0-12.346 9.942-22.366 22.191-22.366h67.973c12.25 0 22.191 10.020 22.191 22.366 0 12.344-9.942 22.364-22.191 22.364zM785.29 760.579l48.866 49.246c8.654 8.722 22.702 8.722 31.378 0 8.678-8.722 8.678-22.879 0-31.623l-48.866-49.246c-4.326-4.362-10.008-6.554-15.688-6.554-5.682 0-11.362 2.192-15.69 6.554-8.676 8.722-8.676 22.878 0 31.623zM991.916 470.378h-69.016c-12.248 0-22.19-10.020-22.19-22.364 0-12.346 9.942-22.366 22.19-22.366h69.016c12.25 0 22.192 10.020 22.192 22.366 0 12.344-9.942 22.364-22.192 22.364zM293.75 234.030c-117.082 117.996-117.082 309.972 0 427.966 117.060 117.995 307.552 117.995 424.634 0s117.082-309.97 0-427.966c-4.328-4.36-10.008-6.552-15.69-6.552-5.68 0-11.362 2.192-15.688 6.552-8.678 8.722-8.678 22.88 0 31.624 99.772 100.55 99.772 264.146 0 364.696-99.774 100.55-262.104 100.55-361.878 0-99.772-100.55-99.772-264.146 0-364.696 8.678-8.722 8.678-22.88 0-31.624-8.654-8.722-22.724-8.722-31.378 0z" />
<glyph unicode="&#xe94e;" glyph-name="icon-1" d="M461.336 42.002c0-5.89 4.776-10.666 10.666-10.666h80c5.892 0 10.666 4.776 10.666 10.666v69.334h69.334c5.89 0 10.666 4.776 10.666 10.666v80c0 5.892-4.776 10.666-10.666 10.666h-69.334v69.334c0 5.89-4.774 10.666-10.666 10.666h-80c-5.89 0-10.666-4.776-10.666-10.666v-69.334h-69.334c-5.89 0-10.666-4.774-10.666-10.666v-80c0-5.89 4.776-10.666 10.666-10.666h69.334v-69.334zM482.67 52.67v69.332c0 5.892-4.776 10.668-10.668 10.668h-69.332v58.666h69.332c5.892 0 10.668 4.776 10.668 10.666v69.334h58.666v-69.334c0-5.89 4.776-10.666 10.666-10.666h69.334v-58.666h-69.334c-5.89 0-10.666-4.776-10.666-10.668v-69.332h-58.666zM152.003 569.328c5.891 0 10.667 4.776 10.667 10.666 0 192.929 156.405 349.333 349.333 349.333s349.332-156.404 349.332-349.333c0-5.89 4.776-10.666 10.666-10.666 5.892 0 10.668 4.776 10.668 10.666 0 204.711-165.956 370.666-370.666 370.666s-370.666-165.955-370.666-370.666c0-5.89 4.776-10.666 10.667-10.666zM318.428 359.49c4.702 3.548 5.638 10.236 2.088 14.938l-153.773 203.75c4.643 3.512 11.122 8.084 18.823 12.648 16.296 9.656 36.794 18.51 56.436 18.51s40.142-8.854 56.438-18.51c8.004-4.744 14.69-9.496 19.364-13.058 2.332-1.776 4.15-3.246 5.366-4.256 0.608-0.504 1.066-0.894 1.36-1.146 0.062-0.054 0.118-0.102 0.166-0.144 0.064-0.056 0.116-0.1 0.152-0.134l0.066-0.056c0.002-0.002 0.004-0.004 0.006-0.004-0.002 0-0.004 0.002 7.082 7.974s7.084 7.974 7.082 7.976l-0.004 0.006-0.056 0.048-0.13 0.114c-0.108 0.094-0.258 0.226-0.452 0.392-0.386 0.332-0.94 0.804-1.65 1.392-1.18 0.978-2.794 2.286-4.79 3.832-0.408 0.316-0.83 0.64-1.27 0.976-5.17 3.938-12.546 9.184-21.416 14.44-17.454 10.344-41.956 21.492-67.314 21.492s-49.858-11.148-67.312-21.492c-8.87-5.256-16.247-10.502-21.417-14.44-2.59-1.974-4.639-3.63-6.059-4.808-0.71-0.588-1.264-1.060-1.65-1.392-0.193-0.166-0.345-0.298-0.453-0.392l-0.13-0.114-0.040-0.036-0.014-0.012-0.006-0.006c-0.002-0.002-0.004-0.004 7.082-7.976l-7.086 7.972c-4.156-3.692-4.777-9.96-1.428-14.398l159.999-211.998c3.55-4.702 10.238-5.638 14.94-2.088zM512.002 593.762c-0.408 0.316-0.832 0.64-1.27 0.976-5.17 3.938-12.546 9.184-21.418 14.44-17.454 10.344-41.954 21.492-67.312 21.492s-49.858-11.148-67.312-21.492c-8.872-5.256-16.248-10.502-21.418-14.44-0.438-0.336-0.862-0.66-1.27-0.976zM512.002 593.762c0.408 0.316 0.83 0.64 1.27 0.976 5.17 3.938 12.546 9.184 21.416 14.44 17.456 10.344 41.956 21.492 67.314 21.492s49.858-11.148 67.312-21.492c8.87-5.256 16.248-10.502 21.418-14.44 0.438-0.336 0.862-0.66 1.27-0.976 0.406 0.316 0.83 0.64 1.27 0.976 5.168 3.938 12.546 9.184 21.416 14.44 17.454 10.344 41.956 21.492 67.312 21.492 25.358 0 49.86-11.148 67.314-21.492 8.87-5.256 16.248-10.502 21.416-14.44 2.59-1.974 4.64-3.63 6.060-4.808 0.71-0.588 1.264-1.060 1.65-1.392 0.086-0.074 0.164-0.14 0.234-0.2 0.086-0.076 0.16-0.14 0.22-0.192l0.13-0.114 0.040-0.036 0.014-0.012 0.004-0.006c0.004-0.002 0.006-0.004-7.082-7.976l7.088 7.972c4.154-3.692 4.776-9.96 1.426-14.398l-159.998-211.998c-3.55-4.702-10.238-5.638-14.94-2.088-4.702 3.548-5.638 10.236-2.088 14.938l153.772 203.75c-4.642 3.512-11.122 8.084-18.822 12.648-16.296 9.656-36.796 18.51-56.438 18.51-19.64 0-40.14-8.854-56.436-18.51-8.004-4.744-14.69-9.496-19.364-13.058-2.332-1.776-4.15-3.246-5.366-4.256-0.608-0.504-1.066-0.894-1.36-1.146-0.148-0.128-0.254-0.22-0.32-0.278l-0.064-0.056c-0.002-0.002-0.004-0.004-0.006-0.004-4.040-3.588-10.126-3.59-14.166 0l-0.004 0.002-0.066 0.058c-0.066 0.058-0.172 0.15-0.32 0.278-0.294 0.252-0.75 0.642-1.358 1.146-1.218 1.010-3.036 2.48-5.368 4.256-4.674 3.562-11.36 8.314-19.364 13.058-16.296 9.656-36.794 18.51-56.436 18.51s-40.142-8.854-56.438-18.51c-8.004-4.744-14.69-9.496-19.364-13.058-2.332-1.776-4.15-3.246-5.366-4.256-0.608-0.504-1.064-0.894-1.36-1.146-0.086-0.074-0.158-0.138-0.216-0.188-0.042-0.036-0.076-0.066-0.102-0.090l-0.066-0.056c-0.002-0.002-0.004-0.004-0.006-0.004 0-0.002 0-0.002 0-0.002s0 0 0 0c-0.002 0-0.002-0.002-0.002-0.002-4.040-3.586-10.124-3.584-14.164 0.004l-0.002 0.002zM339.088 572.030c0 0-0.002-0.002-0.002-0.002-0.002-0.002-0.002-0.002-0.002-0.002s0 0 0 0-0.002-0.002-0.002-0.002c-4.040-3.586-10.124-3.584-14.162 0.004zM415.768 358.018c5.512 2.080 8.294 8.234 6.214 13.746l-79.31 210.172c0.182 70.246 10.22 137.984 28.448 194.802 1.798 5.61-1.29 11.616-6.9 13.415-5.608 1.8-11.614-1.289-13.414-6.898-19.164-59.739-29.47-130.437-29.47-203.257 0-1.288 0.232-2.564 0.686-3.766l80-212c2.080-5.512 8.234-8.294 13.746-6.214zM512.002 357.336c5.892 0 10.668 4.776 10.668 10.666v411.999c0 5.891-4.776 10.667-10.668 10.667-5.89 0-10.666-4.776-10.666-10.667v-411.999c0-5.89 4.776-10.666 10.666-10.666zM608.232 358.018c5.512-2.080 11.666 0.702 13.746 6.214l80 212c0.454 1.202 0.686 2.478 0.686 3.766 0 72.82-10.306 143.518-29.47 203.257-1.8 5.609-7.806 8.698-13.414 6.898-5.61-1.799-8.698-7.806-6.9-13.415 18.228-56.818 28.266-124.556 28.448-194.802l-79.31-210.172c-2.080-5.512 0.702-11.666 6.214-13.746zM261.336-3.998c0-27.99 22.676-50.666 50.666-50.666h400c27.99 0 50.666 22.676 50.666 50.666v332c0 27.99-22.676 50.666-50.666 50.666h-400c-27.99 0-50.666-22.676-50.666-50.666v-332zM312.002-33.33c-16.208 0-29.332 13.124-29.332 29.332v332c0 16.208 13.124 29.332 29.332 29.332h400c16.208 0 29.332-13.124 29.332-29.332v-332c0-16.208-13.124-29.332-29.332-29.332h-400z" />
<glyph unicode="&#xe94f;" glyph-name="icon-2" d="M796.46 235.568c4.166-4.164 10.92-4.164 15.086 0.002l102.418 102.44c0.002 0 0-0.002 0 0 12.776 12.776 20.704 30.456 20.704 49.962 0 30.778-19.662 56.938-47.112 66.636-5.554 1.964-11.648-0.948-13.61-6.502-1.964-5.556 0.948-11.65 6.502-13.612 19.19-6.78 32.888-25.062 32.888-46.522 0-13.614-5.512-25.934-14.456-34.878l-102.42-102.44c-4.166-4.166-4.166-10.92 0-15.086zM249.336-43.998c0-5.89 4.774-10.666 10.666-10.666h212c5.89 0 10.666 4.776 10.666 10.666v273.1c0 56.202-42.566 103.282-98.48 108.908-0.014 0.002-0.028 0.004-0.042 0.004l-1.48 0.16c-18.266 1.832-43.784 8.956-68.344 19.21-24.7 10.314-46.93 23.172-59.438 35.68l-44.92 44.9c0 0 0 0-0.002 0.002-12.775 12.774-30.455 20.702-49.96 20.702-3.162 0-6.277-0.208-9.333-0.612v169.944c0 39.032-31.636 70.668-70.667 70.668s-70.666-31.636-70.666-70.668v-271.678c0-94.94 53.643-181.734 138.555-224.2l101.445-50.712v-125.408zM270.668-33.33v121.332c0 4.040-2.282 7.734-5.896 9.542l-107.339 53.658c-77.687 38.854-126.764 118.26-126.764 205.12v271.678c0 27.25 22.084 49.334 49.333 49.334s49.333-22.084 49.333-49.334v-183.418c0-3.466 1.683-6.714 4.512-8.714 2.83-1.998 6.454-2.498 9.719-1.34 5.126 1.818 10.641 2.806 16.435 2.806 13.614 0 25.934-5.512 34.877-14.456l44.92-44.9c0 0 0 0 0.002 0 15.432-15.432 40.68-29.584 66.3-40.28 25.742-10.748 53.362-18.63 74.392-20.746 0.014-0.002 0.028-0.002 0.044-0.004l1.48-0.16c45.026-4.514 79.316-42.424 79.316-87.686v-262.432h-190.666zM227.544 235.568c4.166 4.166 4.166 10.92 0.002 15.086l-102.421 102.44c-8.944 8.944-14.456 21.264-14.456 34.878 0 21.46 13.698 39.742 32.887 46.522 5.554 1.962 8.466 8.056 6.504 13.612-1.963 5.554-8.057 8.466-13.611 6.502-27.451-9.698-47.113-35.858-47.113-66.636 0-19.506 7.928-37.186 20.704-49.962l102.42-102.44c4.164-4.166 10.918-4.166 15.084-0.002zM261.336 487.994c0-5.89 4.776-10.666 10.666-10.666h480c5.89 0 10.666 4.776 10.666 10.666v451.999c0 5.891-4.776 10.667-10.666 10.667h-480c-5.89 0-10.666-4.776-10.666-10.667v-451.999zM282.67 498.662v430.665h458.664v-430.665h-458.664zM597.628 770.933c3.134 1.946 5.040 5.373 5.040 9.062v160c0 5.891-4.774 10.667-10.666 10.667-5.89 0-10.666-4.776-10.666-10.667v-142.819l-65.422 32.379c-3.010 1.489-6.544 1.475-9.542-0.039l-63.702-32.182v142.661c0 5.891-4.776 10.667-10.668 10.667-5.89 0-10.666-4.776-10.666-10.667v-160c0-3.705 1.922-7.144 5.078-9.085 3.154-1.941 7.092-2.106 10.398-0.436l74.42 37.595 76.038-37.634c3.308-1.636 7.224-1.448 10.358 0.498zM541.336 587.994c0-5.89 4.776-10.666 10.666-10.666h120c5.892 0 10.666 4.776 10.666 10.666 0 5.892-4.774 10.668-10.666 10.668h-120c-5.89 0-10.666-4.776-10.666-10.668zM774.664-43.998c0-5.89-4.774-10.666-10.666-10.666h-212c-5.89 0-10.666 4.776-10.666 10.666v273.1c0 56.202 42.566 103.282 98.48 108.908 0.014 0.002 0.028 0.004 0.042 0.004l1.48 0.16c18.266 1.832 43.784 8.956 68.344 19.21 24.7 10.314 46.93 23.172 59.438 35.68l44.92 44.9c0 0 0 0 0.002 0.002 12.776 12.774 30.456 20.702 49.96 20.702 3.162 0 6.278-0.208 9.334-0.612v169.944c0 39.032 31.634 70.668 70.666 70.668 39.030 0 70.666-31.636 70.666-70.668v-271.678c0-94.94-53.642-181.734-138.554-224.2l-101.446-50.712v-125.408zM753.332-33.33v121.332c0 4.040 2.282 7.734 5.896 9.542l107.338 53.658c77.688 38.854 126.764 118.26 126.764 205.12v271.678c0 27.25-22.084 49.334-49.332 49.334-27.25 0-49.334-22.084-49.334-49.334v-183.418c0-3.466-1.682-6.714-4.512-8.714-2.83-1.998-6.454-2.498-9.72-1.34-5.126 1.818-10.64 2.806-16.434 2.806-13.614 0-25.934-5.512-34.878-14.456l-44.92-44.9c0 0 0 0-0.002 0-15.432-15.432-40.68-29.584-66.3-40.28-25.742-10.748-53.362-18.63-74.392-20.746-0.014-0.002-0.028-0.002-0.044-0.004l-1.48-0.16c-45.026-4.514-79.316-42.424-79.316-87.686v-262.432h190.666zM796.456 235.568c-4.166 4.166-4.166 10.92-0.002 15.086l102.42 102.44c8.944 8.944 14.456 21.264 14.456 34.878 0 21.46-13.698 39.742-32.886 46.522-5.554 1.962-8.466 8.056-6.504 13.612 1.962 5.554 8.056 8.466 13.612 6.502 27.45-9.698 47.112-35.858 47.112-66.636 0-19.506-7.928-37.186-20.704-49.962l-102.42-102.44c-4.164-4.166-10.918-4.166-15.084-0.002z" />
<glyph unicode="&#xe950;" glyph-name="icon-3" d="M20.003-54.664c5.891 0 10.667 4.776 10.667 10.666v623.998c0 5.892-4.776 10.668-10.667 10.668s-10.667-4.776-10.667-10.668v-623.998c0-5.89 4.776-10.666 10.667-10.666zM9.336 260.002c0-5.89 4.776-10.666 10.667-10.666h983.997c5.89 0 10.666 4.776 10.666 10.666 0 5.892-4.776 10.668-10.666 10.668h-983.997c-5.891 0-10.667-4.776-10.667-10.668zM272.002 249.336c5.89 0 10.666 4.776 10.666 10.666v60c0 39.032-31.636 70.666-70.666 70.666h-191.999c-5.891 0-10.667-4.774-10.667-10.666 0-5.89 4.776-10.666 10.667-10.666h191.999c27.248 0 49.334-22.084 49.334-49.334v-60c0-5.89 4.774-10.666 10.666-10.666zM1004.002-54.664c5.89 0 10.666 4.776 10.666 10.666v384c0 27.99-22.676 50.666-50.666 50.666h-280c-27.99 0-50.666-22.676-50.666-50.666v-80c0-5.892 4.776-10.668 10.666-10.668 5.892 0 10.668 4.776 10.668 10.668v80c0 16.208 13.124 29.332 29.332 29.332h280c16.208 0 29.332-13.124 29.332-29.332v-384c0-5.89 4.776-10.666 10.668-10.666zM764.002 249.336c5.892 0 10.668 4.776 10.668 10.666v120c0 5.892-4.776 10.666-10.668 10.666-5.89 0-10.666-4.774-10.666-10.666v-120c0-5.89 4.776-10.666 10.666-10.666zM884.002 249.336c5.892 0 10.668 4.776 10.668 10.666v120c0 5.892-4.776 10.666-10.668 10.666-5.89 0-10.666-4.774-10.666-10.666v-120c0-5.89 4.776-10.666 10.666-10.666zM461.336 579.994c0-5.89 4.776-10.666 10.666-10.666h80c5.892 0 10.666 4.776 10.666 10.666v69.334h69.334c5.89 0 10.666 4.776 10.666 10.666v80c0 5.892-4.776 10.666-10.666 10.666h-69.334v69.334c0 5.891-4.774 10.667-10.666 10.667h-80c-5.89 0-10.666-4.776-10.666-10.667v-69.334h-69.334c-5.89 0-10.666-4.774-10.666-10.666v-80c0-5.89 4.776-10.666 10.666-10.666h69.334v-69.334zM482.67 590.662v69.332c0 5.892-4.776 10.668-10.668 10.668h-69.332v58.666h69.332c5.892 0 10.668 4.776 10.668 10.666v69.333h58.666v-69.333c0-5.89 4.776-10.666 10.666-10.666h69.334v-58.666h-69.334c-5.89 0-10.666-4.776-10.666-10.668v-69.332h-58.666zM261.336 499.994c0-27.99 22.676-50.666 50.666-50.666h400c27.99 0 50.666 22.676 50.666 50.666v399.999c0 27.991-22.676 50.667-50.666 50.667h-400c-27.99 0-50.666-22.676-50.666-50.667v-399.999zM312.002 470.662c-16.208 0-29.332 13.124-29.332 29.332v399.999c0 16.209 13.124 29.333 29.332 29.333h400c16.208 0 29.332-13.124 29.332-29.333v-399.999c0-16.208-13.124-29.332-29.332-29.332h-400zM9.336 88.002c0-5.89 4.776-10.666 10.667-10.666h983.183c5.89 0 10.666 4.776 10.666 10.666 0 5.892-4.776 10.668-10.666 10.668h-983.183c-5.891 0-10.667-4.776-10.667-10.668z" />
<glyph unicode="&#xe951;" glyph-name="icon-4" d="M227.544-51.54c4.166 4.166 4.166 10.92 0 15.086l-199.999 199.998c-4.166 4.166-10.919 4.166-15.085 0s-4.166-10.918 0-15.084l200-200c4.166-4.166 10.918-4.166 15.084 0zM140.788 20.124c4.166-4.166 10.919-4.166 15.085 0l139.999 140c4.166 4.166 4.166 10.92 0 15.084-4.164 4.166-10.918 4.166-15.084 0l-140-139.998c-4.166-4.166-4.166-10.92 0-15.086zM84.124 76.788c4.166-4.166 10.919-4.166 15.085 0l139.999 140c4.166 4.166 4.166 10.92 0 15.084-4.164 4.166-10.918 4.166-15.084 0l-140-139.998c-4.166-4.166-4.166-10.92 0-15.086zM752.452 688.452c4.166-4.166 10.92-4.166 15.086 0l243.998 244c4.166 4.166 4.166 10.919 0 15.085s-10.918 4.166-15.084 0l-244-243.999c-4.166-4.166-4.166-10.92 0-15.086zM425.552 176.788c4.166 4.166 4.166 10.92 0 15.086l-169.678 169.678c-4.166 4.166-10.92 4.166-15.086 0-4.166-4.164-4.166-10.918 0-15.084l169.68-169.68c4.166-4.166 10.92-4.166 15.084 0zM515.494 266.788c4.166 4.166 4.166 10.92 0 15.086l-84.84 84.838c-4.166 4.166-10.918 4.166-15.084 0-4.166-4.164-4.166-10.918 0-15.084l84.84-84.84c4.164-4.166 10.918-4.166 15.084 0zM595.494 346.788c4.166 4.166 4.166 10.92 0 15.086l-84.84 84.838c-4.166 4.166-10.918 4.166-15.084 0-4.166-4.164-4.166-10.918 0-15.084l84.84-84.84c4.164-4.166 10.918-4.166 15.084 0zM675.494 426.788c4.166 4.166 4.166 10.92 0 15.086l-84.84 84.838c-4.166 4.166-10.918 4.166-15.084 0-4.166-4.164-4.166-10.918 0-15.084l84.84-84.84c4.164-4.166 10.918-4.166 15.084 0zM427.544 28.46c4.166 4.166 4.166 10.92 0 15.086l-319.999 319.998c-4.166 4.166-10.919 4.166-15.085 0s-4.166-10.92 0-15.084l320-320c4.164-4.166 10.918-4.166 15.084 0zM337.25 103.57c4.164-4.166 10.918-4.166 15.084 0l391.718 391.718c19.786 19.786 19.786 51.86 0 71.646l-113.118 113.118c-19.786 19.786-51.86 19.786-71.646 0l-391.718-391.718c-4.166-4.166-4.166-10.92 0-15.086 4.165-4.164 10.919-4.164 15.085 0l391.72 391.72c11.454 11.454 30.020 11.454 41.474 0l113.12-113.12c11.454-11.454 11.454-30.020 0-41.474l-391.718-391.72c-4.166-4.166-4.166-10.918 0-15.084zM700.682 580.124c4.166-4.166 10.92-4.166 15.084 0l80 80c4.166 4.166 4.166 10.92 0 15.084l-56.556 56.56c-2.002 2.002-4.714 3.124-7.544 3.124-2.828 0-5.542-1.122-7.542-3.124l-80-80c-4.166-4.164-4.166-10.918 0-15.084s10.92-4.166 15.086 0l72.456 72.458 41.474-41.476-72.458-72.456c-4.166-4.166-4.166-10.92 0-15.086zM747.328-43.998c0-5.89 4.776-10.666 10.666-10.666h200c5.892 0 10.666 4.776 10.666 10.666v280c0 5.89-4.774 10.666-10.666 10.666-5.89 0-10.666-4.776-10.666-10.666v-269.332h-178.666v269.332c0 5.89-4.776 10.666-10.668 10.666-5.89 0-10.666-4.776-10.666-10.666v-280zM942.714 106.67c-27.746 0-55.132 6.454-79.946 18.872-27.786 13.902-58.44 21.128-89.494 21.128h-15.28c-5.89 0-10.666-4.776-10.666-10.668 0-5.89 4.776-10.666 10.666-10.666h15.28c27.748 0 55.132-6.456 79.948-18.872 27.784-13.904 58.438-21.128 89.492-21.128h15.28c5.892 0 10.666 4.776 10.666 10.666 0 5.892-4.774 10.668-10.666 10.668h-15.28zM701.328 236.002c0-5.89 4.776-10.666 10.666-10.666h292c5.892 0 10.666 4.776 10.666 10.666v80c0 5.892-4.774 10.666-10.666 10.666h-292c-5.89 0-10.666-4.774-10.666-10.666v-80zM722.662 246.67v58.666h270.666v-58.666h-270.666z" />
<glyph unicode="&#xe952;" glyph-name="icon-5" d="M461.336 156.002c0-5.89 4.776-10.666 10.666-10.666h80c5.892 0 10.666 4.776 10.666 10.666v69.334h69.334c5.89 0 10.666 4.776 10.666 10.666v80c0 5.892-4.776 10.666-10.666 10.666h-69.334v69.334c0 5.89-4.774 10.666-10.666 10.666h-80c-5.89 0-10.666-4.776-10.666-10.666v-69.334h-69.334c-5.89 0-10.666-4.774-10.666-10.666v-80c0-5.89 4.776-10.666 10.666-10.666h69.334v-69.334zM482.67 166.67v69.332c0 5.892-4.776 10.668-10.668 10.668h-69.332v58.666h69.332c5.892 0 10.668 4.776 10.668 10.666v69.334h58.666v-69.334c0-5.89 4.776-10.666 10.666-10.666h69.334v-58.666h-69.334c-5.89 0-10.666-4.776-10.666-10.668v-69.332h-58.666zM512.002-33.33c-170.848 0-309.332 138.484-309.332 309.332 0 155.488 77.174 238.768 157.142 324.734l0.46 0.494c62.654 67.352 126.916 136.434 151.73 242.308 24.812-105.874 89.076-174.956 151.728-242.308l0.462-0.494c79.966-85.966 157.142-169.246 157.142-324.734 0-54.118-13.886-104.96-38.282-149.188-37.3-67.624-84.516-100.158-112.774-118.374-44.332-24.376-104.428-41.77-158.276-41.77zM501.334 940c0-155.489-77.174-238.768-157.142-324.734l-0.46-0.496c-79.888-85.878-162.396-174.574-162.396-338.768 0-182.63 148.036-330.666 330.666-330.666 57.956 0 121.726 18.582 168.896 44.598 0.212 0.118 0.42 0.242 0.624 0.374 29.408 18.94 80.274 53.798 120.21 126.202 26.094 47.304 40.936 101.682 40.936 159.492 0 164.194-82.508 252.89-162.396 338.77l-0.46 0.494c-79.968 85.966-157.144 169.245-157.144 324.734 0 5.891-4.776 10.667-10.666 10.667-5.892 0-10.668-4.776-10.668-10.667z" />
<glyph unicode="&#xe953;" glyph-name="donor" d="M213.334 832h597.332c46.934 0 85.334-38.4 85.334-85.334v-597.332c0-46.934-38.4-85.334-85.334-85.334h-597.332c-47.361 0-85.334 38.4-85.334 85.334v597.332c0 46.934 37.973 85.334 85.334 85.334zM810.634 149.33v597.332h-597.334v-597.332h597.334zM512 448c-70.4 0-128 57.6-128 128s57.6 128 128 128c70.4 0 128-57.6 128-128s-57.6-128-128-128zM469.3 575.996c0 23.466 19.2 42.666 42.666 42.666 23.468 0 42.668-19.2 42.668-42.666s-19.2-42.666-42.668-42.666c-23.466 0-42.666 19.2-42.666 42.666zM256 191.998v65.28c0 106.668 169.386 152.746 256 152.746s256-46.078 256-152.746v-65.28h-512zM669.48 277.338h-314.88c29.014 23.894 101.546 47.786 157.44 47.786s128-23.892 157.44-47.786z" />
<glyph unicode="&#xe954;" glyph-name="icon-6" d="M504.978 59.974c4.022-3.518 10.026-3.518 14.048 0 14.224 12.444 27.9 24.096 40.85 35.13 29.674 25.286 55.536 47.322 75.43 68.166 28.876 30.258 47.362 60.12 47.362 97.052 0 52.124-36.188 98.346-90.666 98.346-35.146 0-57.986-20.422-71.504-39.5-3.326-4.694-6.142-9.372-8.496-13.754-2.354 4.382-5.17 9.060-8.496 13.754-13.518 19.078-36.358 39.5-71.504 39.5-54.478 0-90.666-46.222-90.666-98.346 0-36.932 18.486-66.794 47.362-97.052 19.894-20.844 45.756-42.88 75.432-68.166 12.948-11.034 26.626-22.686 40.848-35.13zM522.288 275.18l0.020 0.068c0.026 0.086 0.070 0.236 0.132 0.444 0.126 0.418 0.33 1.068 0.616 1.918 0.572 1.702 1.47 4.192 2.734 7.206 2.54 6.062 6.486 14.076 12.116 22.018 11.282 15.924 28.442 30.502 54.096 30.502 40.242 0 69.332-34.058 69.332-77.014 0-28.828-14.064-53.616-41.462-82.322-19.104-20.018-43.636-40.918-72.794-65.76-11.042-9.41-22.75-19.382-35.076-30.088-12.326 10.706-24.034 20.678-35.076 30.088-29.158 24.842-53.69 45.742-72.794 65.76-27.398 28.706-41.462 53.494-41.462 82.322 0 42.956 29.090 77.014 69.332 77.014 25.654 0 42.814-14.578 54.096-30.502 5.63-7.942 9.576-15.956 12.116-22.018 1.264-3.014 2.162-5.504 2.734-7.206 0.286-0.85 0.49-1.5 0.616-1.918 0.064-0.208 0.106-0.358 0.132-0.444l0.020-0.068c0-0.002 0-0.004 0.002-0.006-0.002 0.002-0.002 0.006 10.284 2.828zM522.288 275.18c0-0.002 0-0.004-0.002-0.006zM501.718 275.174c0-0.004 0.002-0.008 0.002-0.012 1.278-4.624 5.484-7.826 10.282-7.826s9.004 3.202 10.282 7.826c0 0.002 0.002 0.006 0.002 0.008s0 0.002 0 0.004zM200.464 441.502c3.588 4.672 2.706 11.368-1.967 14.956l-172 131.998c-4.673 3.588-11.369 2.706-14.956-1.968-3.587-4.672-2.706-11.368 1.968-14.956l172-131.998c4.673-3.588 11.369-2.706 14.955 1.968zM823.542 441.502c3.586-4.674 10.282-5.556 14.956-1.968l171.998 131.998c4.674 3.588 5.556 10.284 1.968 14.956-3.586 4.674-10.282 5.556-14.956 1.968l-171.998-131.998c-4.674-3.588-5.556-10.284-1.968-14.956zM241.336 447.994c0-5.89 4.776-10.666 10.666-10.666h520c5.89 0 10.666 4.776 10.666 10.666v491.999c0 5.891-4.776 10.667-10.666 10.667h-440c-50.070 0-90.666-40.596-90.666-90.667v-411.999zM262.67 458.662v401.331c0 38.289 31.044 69.333 69.332 69.333h429.332v-470.665h-498.664zM352.002 437.328c5.892 0 10.668 4.776 10.668 10.666v491.999c0 5.891-4.776 10.667-10.668 10.667-5.89 0-10.666-4.776-10.666-10.667v-491.999c0-5.89 4.776-10.666 10.666-10.666zM421.336 667.994c0-5.89 4.776-10.666 10.666-10.666h260c5.89 0 10.666 4.776 10.666 10.666v120c0 5.891-4.776 10.667-10.666 10.667h-260c-5.89 0-10.666-4.776-10.666-10.667v-120zM442.67 678.662v98.666h238.666v-98.666h-238.666zM461.336 567.994c0-5.89 4.776-10.666 10.666-10.666h200c5.892 0 10.666 4.776 10.666 10.666 0 5.892-4.774 10.668-10.666 10.668h-200c-5.89 0-10.666-4.776-10.666-10.668zM181.336-43.998c0-5.89 4.776-10.666 10.667-10.666h638.123c5.892 0 10.668 4.776 10.668 10.666v492c0 5.89-4.776 10.666-10.668 10.666h-638.123c-5.891 0-10.667-4.776-10.667-10.666v-492zM202.67-33.33v470.664h616.79v-470.664h-616.79z" />
<glyph unicode="&#xe955;" glyph-name="icon-7" d="M504.978 53.974c4.022-3.518 10.026-3.518 14.048 0 14.224 12.444 27.9 24.096 40.85 35.13 29.674 25.286 55.536 47.322 75.43 68.166 28.876 30.258 47.362 60.12 47.362 97.052 0 52.124-36.188 98.346-90.666 98.346-35.146 0-57.986-20.422-71.504-39.5-3.326-4.694-6.142-9.372-8.496-13.754-2.354 4.382-5.17 9.060-8.496 13.754-13.518 19.078-36.358 39.5-71.504 39.5-54.478 0-90.666-46.222-90.666-98.346 0-36.932 18.486-66.794 47.362-97.052 19.894-20.844 45.756-42.88 75.432-68.166 12.948-11.034 26.626-22.686 40.848-35.13zM522.288 269.18l0.020 0.068c0.026 0.086 0.070 0.236 0.132 0.444 0.126 0.418 0.33 1.068 0.616 1.918 0.572 1.702 1.47 4.192 2.734 7.206 2.54 6.062 6.486 14.076 12.116 22.018 11.282 15.924 28.442 30.502 54.096 30.502 40.242 0 69.332-34.058 69.332-77.014 0-28.828-14.064-53.616-41.462-82.322-19.104-20.018-43.636-40.918-72.794-65.76-11.042-9.41-22.75-19.382-35.076-30.088-12.326 10.706-24.034 20.678-35.076 30.088-29.158 24.842-53.69 45.742-72.794 65.76-27.398 28.706-41.462 53.494-41.462 82.322 0 42.956 29.090 77.014 69.332 77.014 25.654 0 42.814-14.578 54.096-30.502 5.63-7.942 9.576-15.956 12.116-22.018 1.264-3.014 2.162-5.504 2.734-7.206 0.286-0.85 0.49-1.5 0.616-1.918 0.064-0.208 0.106-0.358 0.132-0.444l0.020-0.068c0-0.002 0-0.004 0.002-0.006-0.002 0.002-0.002 0.006 10.284 2.828zM522.288 269.18c0-0.002 0-0.004-0.002-0.006zM501.718 269.174c0-0.004 0.002-0.008 0.002-0.012 1.278-4.624 5.484-7.826 10.282-7.826s9.004 3.202 10.282 7.826c0 0.002 0.002 0.006 0.002 0.008s0 0.002 0 0.004zM200.464 441.502c3.588 4.672 2.706 11.368-1.967 14.956l-172 131.998c-4.673 3.588-11.369 2.706-14.956-1.968-3.587-4.672-2.706-11.368 1.968-14.956l172-131.998c4.673-3.588 11.369-2.706 14.955 1.968zM823.534 441.502c3.586-4.674 10.282-5.556 14.956-1.968l171.998 131.998c4.674 3.588 5.556 10.284 1.968 14.956-3.586 4.674-10.282 5.556-14.956 1.968l-171.998-131.998c-4.674-3.588-5.556-10.284-1.968-14.956zM192.003 437.328c5.891 0 10.667 4.776 10.667 10.666v212c0 76.23 13.26 144.737 34.282 193.788 10.518 24.544 22.77 43.726 35.832 56.616 13.014 12.845 26.256 18.929 39.218 18.929 12.964 0 26.204-6.084 39.22-18.929 13.060-12.89 25.312-32.071 35.83-56.616 21.022-49.051 34.284-117.558 34.284-193.788v-212c0-5.89 4.774-10.666 10.666-10.666 5.89 0 10.666 4.776 10.666 10.666v212c0 78.41-13.598 149.902-36.006 202.191-11.196 26.125-24.804 47.949-40.456 63.396-15.698 15.493-34.026 25.078-54.204 25.078-20.176 0-38.506-9.586-54.204-25.078-15.652-15.447-29.258-37.271-40.454-63.396-22.41-52.289-36.008-123.781-36.008-202.191v-212c0-5.89 4.776-10.666 10.667-10.666zM262.456 535.226c2.636-5.268 9.042-7.404 14.312-4.77l80 40c5.268 2.636 7.404 9.042 4.77 14.312-2.636 5.268-9.042 7.404-14.312 4.77l-80-40c-5.268-2.634-7.404-9.042-4.77-14.312zM262.456 655.226c2.636-5.268 9.042-7.404 14.312-4.77l80 40c5.268 2.636 7.404 9.042 4.77 14.312-2.636 5.268-9.042 7.404-14.312 4.77l-80-40c-5.268-2.634-7.404-9.042-4.77-14.312zM272.456 780.227c2.636-5.269 9.042-7.405 14.312-4.77l60 30c5.268 2.635 7.404 9.042 4.77 14.311-2.636 5.269-9.042 7.405-14.312 4.77l-60-30c-5.268-2.634-7.404-9.042-4.77-14.311zM581.328 447.994c0-5.89 4.776-10.666 10.666-10.666h240c5.892 0 10.666 4.776 10.666 10.666v103.44c0 39.050-15.504 76.482-43.124 104.102-11.69 11.69-20.966 25.568-27.292 40.842-6.328 15.272-9.584 31.644-9.582 48.176v104.773h29.332c5.892 0 10.666 4.776 10.666 10.667v80c0 5.891-4.774 10.667-10.666 10.667h-160c-5.89 0-10.666-4.776-10.666-10.667v-80c0-5.891 4.776-10.667 10.666-10.667h29.334v-104.773c0-33.39-13.256-65.396-36.874-89.016-6.496-6.492-12.366-13.582-17.532-21.174-16.674-24.442-25.594-53.342-25.594-82.93v-103.44zM682.662 849.327h58.666v-104.773c0 0 0 0 0 0-0.002-19.334 3.806-38.48 11.206-56.342s18.246-34.090 31.918-47.76c0 0 0 0 0 0zM821.328 458.662v92.772c0 33.39-13.258 65.398-36.876 89.018zM821.328 458.662h-218.666v92.772c0 25.3 7.626 50.010 21.884 70.908l0.008 0.012c4.414 6.49 9.43 12.548 14.982 18.096l0.002 0.002c27.62 27.62 43.124 65.052 43.124 104.102v104.773zM642.662 870.66v58.667h138.666v-58.667h-138.666zM621.056 619.118c5.090 2.966 6.81 9.498 3.844 14.586-22.634 38.826-64.748 64.936-112.954 64.936-33.47 0-63.996-12.6-87.112-33.278-0.102-0.092-0.204-0.184-0.302-0.28l-0.060-0.058c-4.236-4.094-4.35-10.848-0.256-15.084 4.058-4.198 10.73-4.346 14.97-0.362 19.348 17.252 44.81 27.73 72.76 27.73 40.312 0 75.558-21.812 94.524-54.348 2.966-5.088 9.498-6.81 14.586-3.842zM511.994 677.328c5.892 0 10.668 4.776 10.668 10.666v40c0 16.21 13.124 29.334 29.332 29.334 5.892 0 10.668 4.776 10.668 10.667s-4.776 10.667-10.668 10.667c-27.99 0-50.666-22.675-50.666-50.667v-40c0-5.89 4.776-10.666 10.666-10.666zM181.336-43.998c0-5.89 4.776-10.666 10.667-10.666h640.311c5.89 0 10.666 4.776 10.666 10.666v492c0 5.89-4.776 10.666-10.666 10.666h-640.311c-5.891 0-10.667-4.776-10.667-10.666v-492zM202.67-33.33v470.664h618.978v-470.664h-618.978z" />
<glyph unicode="&#xe956;" glyph-name="icon-8" d="M712.82 729.782c5.89 0 10.666-4.776 10.666-10.668v-80.326c0-5.89-4.776-10.666-10.666-10.666-5.892 0-10.666 4.776-10.666 10.666v80.326c0 5.892 4.774 10.668 10.666 10.668zM793.146 729.782c5.89 0 10.666-4.776 10.666-10.668v-80.326c0-5.89-4.776-10.666-10.666-10.666-5.892 0-10.666 4.776-10.666 10.666v80.326c0 5.892 4.774 10.668 10.666 10.668zM11.129 544.298c3.268 4.902 9.89 6.226 14.792 2.958l117.801-78.536h736.563l117.802 78.536c4.902 3.268 11.526 1.944 14.792-2.958 3.268-4.902 1.944-11.524-2.958-14.792l-115.74-77.162v-416.006c0-50.252-40.74-90.992-90.992-90.992h-582.368c-50.255 0-90.995 40.74-90.995 90.992v416.006l-115.738 77.162c-4.902 3.268-6.226 9.89-2.958 14.792zM151.158 447.386v-411.048c0-38.47 31.188-69.658 69.662-69.658h582.368c38.47 0 69.66 31.188 69.66 69.658v411.048h-721.69zM210.11 377.67c0 5.89 4.776 10.666 10.666 10.666h582.368c5.892 0 10.666-4.776 10.666-10.666v-341.388c0-5.892-4.774-10.668-10.666-10.668h-582.368c-5.89 0-10.666 4.776-10.666 10.668v341.388zM231.442 367.002v-320.054h561.036v320.054h-561.036zM456.782 286.666c-25.592 0-44.558-21.768-44.558-49.576 0-30.622 24.86-71.222 99.784-108.606 74.924 37.384 99.782 77.984 99.782 108.606 0 27.808-18.966 49.576-44.556 49.576-15.55 0-27.194-5.712-35.046-11.482-3.942-2.898-6.888-5.784-8.816-7.904-0.962-1.054-1.658-1.908-2.088-2.458-0.214-0.274-0.362-0.472-0.44-0.58-0.034-0.048-0.056-0.078-0.064-0.090-1.992-2.878-5.27-4.596-8.77-4.596-3.502 0-6.778 1.718-8.77 4.596-0.010 0.012-0.030 0.042-0.064 0.088-0.080 0.11-0.228 0.308-0.442 0.582-0.43 0.55-1.126 1.402-2.086 2.458-1.928 2.118-4.876 5.006-8.816 7.902-7.854 5.77-19.498 11.484-35.050 11.484zM512.008 286.11c2.124 1.986 4.638 4.126 7.546 6.264 10.592 7.784 26.56 15.626 47.68 15.626 39.792 0 65.89-33.896 65.89-70.91 0-43.792-35.544-90.934-116.47-130.092-2.936-1.42-6.358-1.42-9.292 0-80.926 39.158-116.472 86.3-116.472 130.092 0 37.014 26.098 70.91 65.892 70.91v0c21.12-0.002 37.088-7.842 47.682-15.626 2.908-2.138 5.422-4.278 7.544-6.264zM341.318 889.221c-82.834 0-149.985-67.151-149.985-149.985s67.151-149.986 149.985-149.986c82.836 0 149.986 67.152 149.986 149.986s-67.15 149.985-149.986 149.985zM170 739.236c0 94.617 76.702 171.319 171.318 171.319 94.618 0 171.32-76.702 171.32-171.319s-76.702-171.318-171.32-171.318c-94.616 0-171.318 76.702-171.318 171.318zM109.781 859.671c0-44.6 32.059-81.666 74.399-89.472 5.793-1.068 11.356 2.763 12.424 8.556s-2.763 11.356-8.556 12.424c-32.404 5.974-56.933 34.369-56.933 68.492 0 38.469 31.192 69.659 69.661 69.659 30.368 0 56.228-19.453 65.76-46.623 1.952-5.559 8.038-8.484 13.598-6.534 5.558 1.95 8.484 8.038 6.534 13.597-12.436 35.442-46.176 60.893-85.892 60.893-50.251 0-90.995-40.741-90.995-90.993zM481.918 929.331c-30.37 0-56.23-19.453-65.764-46.623-1.95-5.559-8.036-8.484-13.596-6.534-5.558 1.95-8.484 8.038-6.534 13.597 12.436 35.443 46.176 60.893 85.894 60.893 50.25 0 90.992-40.742 90.992-90.993 0-44.6-32.058-81.666-74.398-89.472-5.794-1.068-11.356 2.763-12.424 8.556s2.762 11.356 8.556 12.424c32.404 5.974 56.934 34.369 56.934 68.492 0 38.469-31.192 69.659-69.66 69.659zM753.020 950.664c5.89 0 10.666-4.776 10.666-10.667v-29.497h64.974c30.66 0 55.516-24.853 55.516-55.515v-91.036c0-30.661-24.856-55.517-55.516-55.517h-151.282c-30.662 0-55.514 24.856-55.514 55.517v91.036c0 30.661 24.856 55.515 55.514 55.515h64.976v29.497c0 5.891 4.774 10.667 10.666 10.667zM677.378 889.167c-18.878 0-34.182-15.303-34.182-34.181v-91.036c0-18.879 15.304-34.183 34.182-34.183h151.282c18.878 0 34.184 15.304 34.184 34.183v91.036c0 18.878-15.304 34.181-34.184 34.181h-151.282zM712.856 830.174c5.89 0 10.666-4.776 10.666-10.667v-20.080c0-5.891-4.776-10.667-10.666-10.667-5.892 0-10.666 4.776-10.666 10.667v20.080c0 5.891 4.774 10.667 10.666 10.667zM793.182 830.174c5.89 0 10.666-4.776 10.666-10.667v-20.080c0-5.891-4.776-10.667-10.666-10.667-5.892 0-10.666 4.776-10.666 10.667v20.080c0 5.891 4.774 10.667 10.666 10.667zM281.102 790.012c5.89 0 10.666-4.776 10.666-10.667v-20.081c0-5.892-4.776-10.668-10.666-10.668-5.892 0-10.666 4.776-10.666 10.668v20.081c0 5.891 4.774 10.667 10.666 10.667zM401.59 790.012c5.89 0 10.666-4.776 10.666-10.667v-20.081c0-5.892-4.776-10.668-10.666-10.668-5.892 0-10.666 4.776-10.666 10.668v20.081c0 5.891 4.774 10.667 10.666 10.667zM291.204 684.042c4.164 4.166 10.918 4.166 15.084 0 19.362-19.36 50.754-19.36 70.116 0 4.166 4.166 10.92 4.166 15.084 0 4.166-4.166 4.166-10.92 0-15.086-27.694-27.69-72.59-27.69-100.284 0-4.166 4.166-4.166 10.92 0 15.086zM702.606 649.438h-35.268c-30.66 0-55.514-24.856-55.514-55.516v-135.884c0-5.892 4.774-10.668 10.666-10.668h261.062c5.89 0 10.666 4.776 10.666 10.668v135.884c0 30.66-24.856 55.516-55.516 55.516h-35.268c-0.070 0.002-0.14 0.002-0.21 0.002s-0.14 0-0.21-0.002h-99.988c-0.070 0.002-0.14 0.002-0.21 0.002s-0.14 0-0.21-0.002zM792.558 628.104h-79.076v-159.4h79.076v159.4zM813.89 628.104v-159.4h58.996v125.218c0 18.878-15.306 34.182-34.184 34.182h-24.812zM692.15 468.704v159.4h-24.812c-18.876 0-34.182-15.304-34.182-34.182v-125.218h58.994zM444.95 630.412c3.3 4.88 9.932 6.16 14.812 2.858 56.144-37.986 93.066-102.304 93.066-175.23 0-5.892-4.776-10.668-10.666-10.668-5.892 0-10.666 4.776-10.666 10.668 0 65.552-33.162 123.376-83.69 157.56-4.878 3.302-6.158 9.934-2.856 14.812zM237.742 630.41c3.302-4.878 2.022-11.51-2.856-14.812-50.527-34.184-83.689-92.008-83.689-157.56 0-5.892-4.776-10.668-10.667-10.668s-10.667 4.776-10.667 10.668c0 72.926 36.922 137.244 93.067 175.23 4.88 3.302 11.512 2.022 14.812-2.858z" />
<glyph unicode="&#xe957;" glyph-name="icon-9" d="M504.978 53.974c4.022-3.518 10.026-3.518 14.048 0 14.224 12.444 27.9 24.096 40.85 35.13 29.674 25.286 55.536 47.322 75.43 68.166 28.876 30.258 47.362 60.12 47.362 97.052 0 52.124-36.188 98.346-90.666 98.346-35.146 0-57.986-20.422-71.504-39.5-3.326-4.694-6.142-9.372-8.496-13.754-2.354 4.382-5.17 9.060-8.496 13.754-13.518 19.078-36.358 39.5-71.504 39.5-54.478 0-90.666-46.222-90.666-98.346 0-36.932 18.486-66.794 47.362-97.052 19.894-20.844 45.756-42.88 75.432-68.166 12.948-11.034 26.626-22.686 40.848-35.13zM522.288 269.18l0.020 0.068c0.026 0.086 0.070 0.236 0.132 0.444 0.126 0.418 0.33 1.068 0.616 1.918 0.572 1.702 1.47 4.192 2.734 7.206 2.54 6.062 6.486 14.076 12.116 22.018 11.282 15.924 28.442 30.502 54.096 30.502 40.242 0 69.332-34.058 69.332-77.014 0-28.828-14.064-53.616-41.462-82.322-19.104-20.018-43.636-40.918-72.794-65.76-11.042-9.41-22.75-19.382-35.076-30.088-12.326 10.706-24.034 20.678-35.076 30.088-29.158 24.842-53.69 45.742-72.794 65.76-27.398 28.706-41.462 53.494-41.462 82.322 0 42.956 29.090 77.014 69.332 77.014 25.654 0 42.814-14.578 54.096-30.502 5.63-7.942 9.576-15.956 12.116-22.018 1.264-3.014 2.162-5.504 2.734-7.206 0.286-0.85 0.49-1.5 0.616-1.918 0.064-0.208 0.106-0.358 0.132-0.444l0.020-0.068c0-0.002 0-0.004 0.002-0.006-0.002 0.002-0.002 0.006 10.284 2.828zM522.288 269.18c0-0.002 0-0.004-0.002-0.006zM501.718 269.174c0-0.004 0.002-0.008 0.002-0.012 1.278-4.624 5.484-7.826 10.282-7.826s9.004 3.202 10.282 7.826c0 0.002 0.002 0.006 0.002 0.008s0 0.002 0 0.004zM200.464 441.502c3.588 4.672 2.706 11.368-1.967 14.956l-172 131.998c-4.673 3.588-11.369 2.706-14.956-1.968-3.587-4.672-2.706-11.368 1.968-14.956l172-131.998c4.673-3.588 11.369-2.706 14.955 1.968zM823.534 441.502c3.586-4.674 10.282-5.556 14.956-1.968l171.998 131.998c4.674 3.588 5.556 10.284 1.968 14.956-3.586 4.674-10.282 5.556-14.956 1.968l-171.998-131.998c-4.674-3.588-5.556-10.284-1.968-14.956zM312.002 437.328c5.892 0 10.668 4.776 10.668 10.666v332c0 5.891-4.776 10.667-10.668 10.667-5.89 0-10.666-4.776-10.666-10.667v-332c0-5.89 4.776-10.666 10.666-10.666zM711.994 437.328c5.892 0 10.668 4.776 10.668 10.666v332c0 5.891-4.776 10.667-10.668 10.667-5.89 0-10.666-4.776-10.666-10.667v-332c0-5.89 4.776-10.666 10.666-10.666zM181.336 659.994c0-5.89 4.776-10.666 10.667-10.666h119.999c5.892 0 10.666 4.776 10.666 10.666 0 5.892-4.774 10.668-10.666 10.668h-109.332v149.332c0 60.389 48.944 109.333 109.332 109.333h400c60.388 0 109.332-48.944 109.332-109.333v-149.332h-109.332c-5.892 0-10.668-4.776-10.668-10.668 0-5.89 4.776-10.666 10.668-10.666h119.998c5.892 0 10.668 4.776 10.668 10.666v160c0 72.171-58.496 130.666-130.666 130.666h-400c-72.17 0-130.666-58.495-130.666-130.666v-160zM381.336 939.994c0-72.171 58.496-130.666 130.666-130.666 72.172 0 130.666 58.495 130.666 130.666 0 5.891-4.776 10.667-10.666 10.667-5.892 0-10.666-4.776-10.666-10.667 0-60.389-48.944-109.333-109.334-109.333-60.388 0-109.332 48.944-109.332 109.333 0 5.891-4.776 10.667-10.668 10.667-5.89 0-10.666-4.776-10.666-10.667zM181.336-43.998c0-5.89 4.776-10.666 10.667-10.666h639.997c5.892 0 10.668 4.776 10.668 10.666v492c0 5.89-4.776 10.666-10.668 10.666h-639.997c-5.891 0-10.667-4.776-10.667-10.666v-492zM202.67-33.33v470.664h618.664v-470.664h-618.664z" />
<glyph unicode="&#xe958;" glyph-name="icon-10" d="M190.195 568.246c5.817-0.934 11.289 3.024 12.223 8.84 4.756 29.602 21.474 57.090 48.53 74.682 50.892 33.086 119.054 18.588 152.236-32.448l0.004-0.006c4.83-7.42 8.754-15.392 11.686-23.746 1.95-5.56 8.038-8.484 13.596-6.534 5.56 1.952 8.484 8.040 6.534 13.598-3.496 9.962-8.174 19.468-13.934 28.316zM190.195 568.246c-5.816 0.934-9.774 6.406-8.84 12.224zM181.355 580.47c5.669 35.288 25.637 68.164 57.965 89.184zM421.066 630.954c-39.584 60.874-120.946 78.228-181.746 38.7v0zM57.396 352.956c4.198 4.132 4.251 10.886 0.118 15.084-5.236 5.32-9.922 11.152-13.988 17.412l-0.003 0.004c-33.18 51.034-18.773 119.218 32.116 152.308 26.833 17.444 58.437 21.646 87.231 14.238 5.705-1.468 11.52 1.968 12.988 7.672 1.468 5.706-1.967 11.522-7.672 12.988-34.326 8.832-72.116 3.828-104.175-17.012h-0.001c-60.798-39.534-77.951-120.94-38.375-181.818zM57.396 352.956c-4.198-4.132-10.952-4.080-15.084 0.118zM42.311 353.074c-6.241 6.34-11.828 13.292-16.674 20.754zM170.289 208.66c0.557 5.864-3.746 11.070-9.611 11.626-33.143 3.146-64.573 20.852-84.145 50.954-34.024 52.334-19.254 122.252 32.927 156.184 5.266 3.416 10.807 6.388 16.566 8.884 4.498 1.952 7.088 6.718 6.276 11.554-7.222 43.010 10.895 88.088 49.663 113.294v0c38.821 25.24 87.449 23.468 123.847-0.674 4.118-2.732 9.574-2.278 13.184 1.1 4.804 4.494 9.99 8.56 15.5 12.152 52.188 33.924 122.082 19.050 156.106-33.282 34.026-52.336 19.256-122.256-32.934-156.186-2.372-1.542-4.034-3.964-4.622-6.73-0.586-2.768-0.050-5.656 1.492-8.028l69.858-107.444c3.212-4.938 9.818-6.338 14.758-3.128 4.938 3.212 6.34 9.818 3.128 14.758l-64.272 98.852c54.95 42.22 68.944 120.368 30.478 179.534v0c-40.428 62.18-123.53 79.91-185.63 39.532l-0.010-0.006c-4.25-2.77-8.338-5.778-12.244-9.008-42.314 24.462-96.496 24.902-140.268-3.556-43.733-28.434-65.316-78.072-60.178-126.632-4.224-2.144-8.333-4.51-12.31-7.090l-0.010-0.006c-62.098-40.374-79.616-123.524-39.19-185.702v-0.002c23.264-35.778 60.662-56.826 100.015-60.562 5.865-0.556 11.070 3.746 11.627 9.612zM371.364 270.834c4.938 3.212 6.338 9.818 3.128 14.758l-112.436 172.934c-3.212 4.94-9.818 6.34-14.756 3.13-4.94-3.212-6.34-9.818-3.13-14.758l112.436-172.934c3.212-4.94 9.818-6.34 14.758-3.13zM352.54 452.044c-13.4-63.518-75.602-103.962-139.094-90.436-5.762 1.228-11.428-2.448-12.654-8.21-1.228-5.76 2.448-11.426 8.208-12.654 75.032-15.986 148.578 31.834 164.414 106.896 1.216 5.764-2.47 11.422-8.236 12.638-5.764 1.216-11.422-2.47-12.638-8.234zM356.61 273.97c3.208-4.94 9.814-6.348 14.756-3.14 10.412 6.758 19.386 15.51 26.402 25.752 7.014 10.24 11.934 21.77 14.474 33.922 1.204 5.766-2.494 11.418-8.26 12.622-5.766 1.206-11.418-2.492-12.622-8.258-1.964-9.396-5.768-18.312-11.192-26.23-5.426-7.92-12.364-14.688-20.416-19.914-4.942-3.206-6.348-9.812-3.142-14.754zM921.552 223.11c5.89 0 10.666 4.776 10.666 10.666v293.896c0 30.072-6.216 59.818-18.258 87.374l-43.614 99.804c-10.866 24.862-16.474 51.702-16.474 78.834v68.356c0 5.891-4.776 10.667-10.666 10.667h-151.86c-5.89 0-10.666-4.776-10.666-10.667v-68.356c0-27.133-5.608-53.972-16.472-78.834l-43.614-99.804c-12.042-27.556-18.258-57.302-18.258-87.374v-236.422c0-5.892 4.776-10.666 10.666-10.666 5.892 0 10.668 4.774 10.668 10.666v236.422c0 27.13 5.608 53.97 16.472 78.832l43.614 99.804c12.042 27.556 18.258 57.304 18.258 87.376v57.689h130.526v-57.689c-0.002-30.073 6.216-59.82 18.258-87.376l43.614-99.804c10.864-24.862 16.474-51.7 16.472-78.832v-293.896c0-5.89 4.776-10.666 10.668-10.666zM861.522 517c5.89-0.008 10.672 4.762 10.678 10.654 0.028 21.812-4.482 43.392-13.238 63.37-0.002 0.002-0.002 0.004-0.002 0.006l-9.634 22.044c-2.358 5.398-8.646 7.862-14.044 5.502-5.4-2.358-7.862-8.646-5.504-14.044l9.644-22.068c7.57-17.27 11.468-35.928 11.446-54.784-0.008-5.892 4.762-10.672 10.654-10.68zM677.258 872.669c-6.28 0-11.37 5.090-11.37 11.369v38.926c0 6.279 5.090 11.369 11.37 11.369h180.202c6.278 0 11.368-5.089 11.368-11.369v-38.926c0-6.28-5.090-11.369-11.368-11.369h-180.202zM644.554 884.039c0-18.061 14.642-32.703 32.704-32.703h180.202c18.064 0 32.702 14.643 32.702 32.703v38.926c0 18.060-14.638 32.703-32.702 32.703h-180.202c-18.062 0-32.704-14.642-32.704-32.703v-38.926zM647.296 663.936c1.97-3.012 5.326-4.826 8.926-4.826h222.252c3.6 0 6.956 1.814 8.926 4.826s2.29 6.814 0.848 10.112l-17.832 40.806c-10.864 24.862-16.472 51.701-16.472 78.834v68.354c0 5.891-4.776 10.667-10.668 10.667h-151.856c-5.892 0-10.668-4.776-10.668-10.667v-68.354c0.002-27.132-5.608-53.972-16.472-78.834l-17.832-40.806c-1.442-3.298-1.122-7.1 0.848-10.112zM672.524 680.442l11.304 25.868c0 0 0 0 0 0 12.042 27.556 18.258 57.305 18.258 87.378 0 0 0 0 0 0v57.687h130.524v-57.687c0-30.073 6.216-59.822 18.258-87.378l11.304-25.868h-189.648zM748.906 121.022c4.342-3.98 11.090-3.686 15.070 0.656 9.11 9.942 19.51 22.168 27.286 35.124 7.18 11.956 12.986 25.936 12.088 40.076 0.062 0.462 0.092 0.932 0.092 1.408v85.462c0 5.89-4.776 10.666-10.666 10.666-5.892 0-10.666-4.776-10.666-10.666v-83.152c-0.268-1.178-0.338-2.42-0.18-3.682 0.988-7.92-2.158-17.806-8.958-29.132-6.654-11.084-15.888-22.048-24.724-31.69-3.98-4.342-3.686-11.090 0.658-15.070zM613.814 35.664c-89.822-51.174-197.494-85.52-302.022-70.412-46.1 6.666-90.344 23.612-119.029 52.79v0c-16.048 16.322-26.271 36.97-28.672 57.5l-0.002 0.016c-0.716 6.042-0.716 12.148 0 18.19 0.049 0.416 0.074 0.836 0.074 1.254v92.128c0 5.892-4.776 10.668-10.667 10.668s-10.667-4.776-10.667-10.668v-91.516c-0.839-7.496-0.814-15.066 0.073-22.558 3.005-25.68 15.606-50.604 34.647-69.972 33.194-33.762 82.594-51.92 131.19-58.946v0c110.932-16.034 223.49 20.494 315.634 72.988v0.002c7.986 4.55 15.886 9.204 23.662 13.946 5.030 3.068 6.622 9.632 3.554 14.66-3.068 5.030-9.63 6.622-14.66 3.554-7.592-4.63-15.308-9.176-23.116-13.624zM299.802 59.258c-41.772 7.752-80.874 24.184-107.020 50.776v0c-28.593 29.080-38.148 70.758-19.833 102.306 18.335 31.576 61.536 50.676 106.604 55.124v0c39.444 3.894 79.080-1.622 119.882-7.302 5.694-0.792 11.41-1.588 17.15-2.362v0c46.288-6.236 96.334-10.876 143.322 1.454v0c24.124 6.33 46.394 16.924 67.544 26.984 4.21 2.002 8.376 3.984 12.502 5.906zM299.802 59.258c17.806-2.466 56.986-6.742 77.036-5.308 0.116 0.008 0.234 0.014 0.352 0.018 83.176 3.198 165.574 33.2 236.642 73.688 53.224 30.322 101.712 64.83 134.366 100.466v0c12.072 13.176 24.54 28.474 30.47 42.956 2.916 7.12 3.918 13.268 3.132 18.442-0.74 4.876-3.2 9.844-9.158 14.71v0c-16.066 13.126-38.484 15.4-63.44 11.226-24.766-4.144-49.936-14.32-69.248-23.312zM378.182 32.658c-22.74-1.586-64.142 3.082-81.554 5.504-0.156 0.020-0.312 0.046-0.468 0.074-44.32 8.188-88.226 25.96-118.59 56.842-33.286 33.852-47.531 85.84-23.071 127.974v0c23.377 40.258 75.011 60.91 122.957 65.642 0 0 0 0 0 0v0zM378.182 32.658c87.518 3.402 173.2 34.868 246.21 76.462v0c54.1 30.82 104.74 66.618 139.534 104.59v0zM264.75 135.246c12.068-6.744 28.020-10.582 45.058-10.582s32.99 3.838 45.058 10.582c11.72 6.552 21.97 17.288 21.97 31.586s-10.25 25.034-21.97 31.586c-12.068 6.744-28.020 10.582-45.058 10.582s-32.99-3.838-45.058-10.582c-11.718-6.552-21.968-17.288-21.968-31.586s10.248-25.034 21.968-31.586zM275.16 153.868c-8.678 4.85-11.046 9.866-11.046 12.964s2.366 8.112 11.046 12.964c8.33 4.656 20.558 7.87 34.648 7.87s26.318-3.214 34.65-7.872c8.678-4.85 11.044-9.864 11.044-12.962s-2.366-8.112-11.044-12.964c-8.332-4.656-20.56-7.87-34.65-7.87s-26.318 3.214-34.648 7.87zM872.838 2.354c14.574-8.872 31.408-13.464 49.168-13.464 26.89 0 51.538 10.534 69.38 30.196 17.808 19.628 28.232 47.658 28.232 81.78 0 33.946-10.296 68.268-27.178 94.354-16.718 25.834-41.312 45.51-70.434 45.51-27.008 0-50.142-16.96-66.616-39.908-16.592-23.112-27.646-53.794-30.35-85.092-0.506-5.87 3.84-11.040 9.71-11.546 5.868-0.508 11.038 3.84 11.544 9.708 2.402 27.804 12.256 54.75 26.426 74.488 14.286 19.902 31.768 31.016 49.286 31.016 18.896 0 37.776-12.978 52.524-35.768 14.586-22.538 23.754-52.814 23.754-82.762 0-29.764-9.038-52.388-22.698-67.444-13.628-15.020-32.452-23.198-53.58-23.198-14.038 0-27.004 3.612-38.076 10.352-5.032 3.064-11.596 1.468-14.658-3.564-3.064-5.032-1.468-11.596 3.566-14.658zM678.74-32.49c26.088-16.88 60.41-27.174 94.354-27.174 34.124 0 62.156 10.424 81.786 28.23 19.664 17.838 30.198 42.486 30.198 69.376s-10.534 51.538-30.198 69.376c-19.63 17.808-47.662 28.23-81.786 28.23-33.944 0-68.268-10.294-94.354-27.174-25.836-16.718-45.514-41.31-45.514-70.432s19.678-53.714 45.514-70.432zM690.33-14.578c-22.792 14.746-35.77 33.624-35.77 52.52 0 18.894 12.978 37.772 35.77 52.52 22.54 14.586 52.818 23.754 82.764 23.754 29.768 0 52.394-9.038 67.452-22.698 15.020-13.626 23.198-32.45 23.198-53.576 0-21.128-8.178-39.95-23.198-53.576-15.058-13.658-37.682-22.696-67.452-22.696-29.946 0-60.224 9.166-82.764 23.752zM824.048 26.446c5.89 0 10.666 4.774 10.666 10.666 0 20.596-10.822 36.632-28.846 45.35-5.302 2.566-11.682 0.346-14.246-4.958-2.566-5.302-0.346-11.682 4.958-14.246 11.060-5.35 16.802-14.17 16.802-26.146 0-5.892 4.774-10.666 10.666-10.666z" />
<glyph unicode="&#xe959;" glyph-name="icon-11" d="M105.336 46.222c0-5.892 4.776-10.668 10.667-10.668h790.931c5.89 0 10.666 4.776 10.666 10.668v525.564c0 3.64-1.854 7.026-4.918 8.986l-394.85 252.569c-3.5 2.239-7.98 2.242-11.484 0.008l-396.080-252.569c-3.072-1.958-4.932-5.35-4.932-8.994v-525.564zM126.669 56.888v509.050l385.405 245.761 384.192-245.751v-509.060h-769.597zM62.424 531.534c3.413-1.872 7.575-1.738 10.86 0.352l438.744 279.201 438.742-279.201c3.284-2.090 7.446-2.224 10.86-0.352 3.412 1.874 5.534 5.458 5.534 9.352v123.24c0 3.658-1.876 7.062-4.97 9.016l-444.468 280.826c-3.48 2.199-7.916 2.199-11.396 0l-444.47-280.826c-3.093-1.954-4.969-5.358-4.969-9.016v-123.24c0-3.894 2.121-7.478 5.534-9.352zM78.224 560.316v97.932l433.804 274.085 433.802-274.085v-97.932l-428.076 272.414c-3.494 2.224-7.958 2.224-11.452 0l-428.078-272.414zM105.336-48.998c0-5.89 4.776-10.666 10.667-10.666h791.965c5.892 0 10.666 4.776 10.666 10.666v96.976c0 5.892-4.774 10.666-10.666 10.666h-791.965c-5.891 0-10.667-4.774-10.667-10.666v-96.976zM126.669-38.33v75.642h770.633v-75.642h-770.633zM507.158 117.288c3.060-1.572 6.688-1.572 9.746 0l114.514 58.804c70.932 36.426 115.536 109.468 115.536 189.21v226.146c0 5.892-4.776 10.668-10.668 10.668h-448.51c-5.89 0-10.666-4.776-10.666-10.668v-226.146c0-79.742 44.602-152.784 115.538-189.21v0l114.51-58.804zM512.032 138.766l-109.64 56.302c-63.82 32.774-103.95 98.49-103.95 170.234v215.48h427.178v-215.48c0-71.744-40.13-137.46-103.948-170.234l-109.64-56.302zM504.498 230.57c4.166-4.166 10.92-4.166 15.084 0l122.006 122.006c38.136 38.134 38.136 99.966 0 138.102-35.408 35.408-91.22 37.918-129.548 7.586-38.326 30.332-94.14 27.822-129.548-7.586-38.136-38.136-38.136-99.968 0-138.102l122.006-122.006zM512.040 253.196l-114.462 114.464c-29.806 29.804-29.806 78.128 0 107.932 29.51 29.512 77.172 29.784 107.040 0.844 4.136-4.008 10.708-4.008 14.844 0 29.872 28.94 77.53 28.668 107.042-0.844 29.804-29.804 29.804-78.128 0-107.932l-114.464-114.464z" />
<glyph unicode="&#xe95a;" glyph-name="icon-12" d="M272.002 509.336c5.892 0 10.668 4.776 10.668 10.666v107.98c0 27.25 22.084 49.334 49.332 49.334 27.25 0 49.334-22.084 49.334-49.334 0-5.89 4.776-10.666 10.666-10.666 5.892 0 10.666 4.776 10.666 10.666 0 39.032-31.634 70.666-70.666 70.666-39.030 0-70.666-31.634-70.666-70.666v-107.98c0-5.89 4.776-10.666 10.666-10.666zM392.002 463c5.892 0 10.668 4.776 10.668 10.666v154.36c0 27.25 22.084 49.334 49.332 49.334 27.25 0 49.334-22.084 49.334-49.334v-30c0-5.89 4.776-10.666 10.666-10.666 5.892 0 10.666 4.776 10.666 10.666v30c0 39.032-31.634 70.666-70.666 70.666-39.030 0-70.666-31.634-70.666-70.666v-154.36c0-5.89 4.776-10.666 10.666-10.666zM501.328 477.994c0-39.030 31.636-70.666 70.666-70.666 39.032 0 70.668 31.636 70.668 70.666 0 5.892-4.776 10.668-10.668 10.668-5.89 0-10.666-4.776-10.666-10.668 0-27.248-22.084-49.332-49.334-49.332-27.248 0-49.332 22.084-49.332 49.332v120c0 27.25 22.084 49.334 49.332 49.334 27.25 0 49.334-22.084 49.334-49.334v-30c0-5.89 4.776-10.666 10.666-10.666 5.892 0 10.668 4.776 10.668 10.666v30c0 39.032-31.636 70.666-70.668 70.666-39.030 0-70.666-31.634-70.666-70.666v-120zM621.328 447.994c0-39.030 31.636-70.666 70.666-70.666 39.032 0 70.668 31.636 70.668 70.666v120c0 39.032-31.636 70.666-70.668 70.666-39.030 0-70.666-31.634-70.666-70.666v-120zM691.994 398.662c-27.248 0-49.332 22.084-49.332 49.332v120c0 27.25 22.084 49.334 49.332 49.334 27.25 0 49.334-22.084 49.334-49.334v-120c0-27.248-22.084-49.332-49.334-49.332zM511.994 857.328c5.892 0 10.668 4.776 10.668 10.667v72c0 5.891-4.776 10.667-10.668 10.667-5.89 0-10.666-4.776-10.666-10.667v-72c0-5.891 4.776-10.667 10.666-10.667zM337.328 810.539c5.102 2.945 6.852 9.468 3.906 14.57l-29.998 51.98c-2.946 5.102-9.47 6.851-14.572 3.907s-6.85-9.468-3.906-14.57l30-51.98c2.944-5.102 9.468-6.851 14.57-3.907zM179.441 682.664c2.945 5.102 1.196 11.626-3.907 14.572l-51.98 29.998c-5.102 2.946-11.626 1.196-14.57-3.906s-1.196-11.626 3.906-14.57l51.98-30c5.102-2.944 11.626-1.196 14.57 3.906zM686.664 810.539c5.102-2.945 11.626-1.196 14.572 3.907l29.998 51.98c2.946 5.102 1.196 11.626-3.906 14.57s-11.626 1.196-14.57-3.907l-30-51.98c-2.944-5.102-1.196-11.626 3.906-14.57zM512.052 147.11c5.89 0 10.666 4.776 10.666 10.666 0 73.408-29.158 143.81-81.064 195.722-4.164 4.166-10.918 4.166-15.084 0-4.166-4.164-4.166-10.918 0-15.084 47.904-47.91 74.814-112.888 74.816-180.638 0-5.892 4.774-10.666 10.666-10.666zM844.54 682.664c2.944-5.102 9.468-6.85 14.57-3.906l51.98 30c5.102 2.944 6.85 9.468 3.906 14.57s-9.468 6.852-14.57 3.906l-51.98-29.998c-5.102-2.946-6.852-9.47-3.906-14.572zM591.328-43.998c0-5.89 4.776-10.666 10.666-10.666h90c5.892 0 10.668 4.776 10.668 10.666v132c0 68.706 14.616 122.314 29.622 177.186l0.094 0.348c14.966 54.728 30.284 110.742 30.284 182.466 0 5.89-4.776 10.666-10.668 10.666-5.89 0-10.666-4.776-10.666-10.666 0-68.706-14.618-122.316-29.622-177.186l-0.096-0.35c-14.964-54.726-30.282-110.742-30.282-182.464v-121.332h-79.334c-5.89 0-10.666-4.776-10.666-10.668zM321.304-43.998c0-5.89 4.776-10.666 10.666-10.666h90c5.892 0 10.666 4.776 10.666 10.666 0 5.892-4.774 10.668-10.666 10.668h-79.332v181.752c0 2.93-1.206 5.732-3.334 7.746l-121.138 114.698c0 0 0 0-0.002 0.002-34.167 32.364-43.805 82.95-23.925 125.608l39.515 84.728c0 0.002 0.002 0.004 0.002 0.006 7.584 16.212 22.796 26.38 39.384 28.208 8.654 0.952 17.682-0.374 26.176-4.342l0.008-0.002 207.384-96.696c-28.272-47.936-88.87-67.44-140.33-43.448l-54.38 25.358c-5.338 2.49-11.684 0.18-14.174-5.158-2.49-5.34-0.18-11.686 5.158-14.176l54.38-25.36c65.398-30.488 143.146-2.2 173.654 63.218 1.196 2.564 1.324 5.498 0.358 8.158-0.968 2.658-2.952 4.824-5.516 6.018l-217.514 101.418c-12.146 5.672-25.116 7.584-37.54 6.218-23.69-2.612-45.518-17.162-56.376-40.386l-39.525-84.75c-23.759-50.982-12.238-111.436 28.593-150.11l0.002-0.002 117.806-111.544v-187.83zM365-44.002c0 5.89 4.776 10.666 10.666 10.666h259.162c5.892 0 10.666-4.776 10.666-10.666 0-5.892-4.774-10.668-10.666-10.668h-259.162c-5.89 0-10.666 4.776-10.666 10.668z" />
<glyph unicode="&#xe95b;" glyph-name="icon-13" d="M153.336-23.998v246c0 2.508 0.883 4.934 2.495 6.856 20.218 24.1 45.469 43.48 73.979 56.778 28.51 13.296 59.588 20.186 91.046 20.186h8.284c50.9 0 100.81-14.056 144.228-40.622l29.874-18.278h154.854c39.994 0 72.416-32.422 72.416-72.416 0-1.842-0.070-3.668-0.204-5.476l175.744 151.154c9.468 8.050 21.020 13.26 33.322 15.026s24.854 0.018 36.206-5.042c42.212-18.82 52.454-74.108 19.78-106.796l-187.872-187.97c-22.202-22.214-48.564-39.834-77.576-51.856-29.014-12.022-60.112-18.21-91.518-18.21h-474.391c-5.891 0-10.667 4.776-10.667 10.666zM659.72 123.468c0.224 0 0.45 0.002 0.674 0.006 27.146 1.202 48.784 23.59 48.784 51.032 0 28.212-22.87 51.084-51.082 51.084h-157.858c-1.966 0-3.892 0.542-5.568 1.568l-32.436 19.846c-40.066 24.514-86.124 37.486-133.094 37.484h-8.284c-28.342 0.002-56.342-6.206-82.028-18.186-24.528-11.44-46.378-27.876-64.159-48.24v-231.392h463.725c28.602 0 56.926 5.634 83.35 16.584 26.426 10.95 50.434 26.998 70.654 47.228l187.874 187.97c22.098 22.108 15.172 59.502-13.38 72.232-7.676 3.422-16.164 4.604-24.486 3.408-8.308-1.192-16.112-4.708-22.512-10.14-0.008-0.006-0.016-0.014-0.024-0.022l-215.268-185.146c-12.154-10.454-27.564-16.33-43.568-16.636-0.974-0.038-1.954-0.058-2.938-0.058l-205.428 0.046c-5.892 0-10.666 4.776-10.664 10.668 0 5.89 4.776 10.664 10.666 10.664h207.050zM9.336-23.998c0-16.936 13.73-30.666 30.667-30.666h104c16.937 0 30.667 13.73 30.667 30.666v296c0 16.936-13.73 30.666-30.667 30.666h-104c-16.937 0-30.667-13.73-30.667-30.666v-296zM40.003-33.33c-5.155 0-9.333 4.178-9.333 9.332v296c0 5.154 4.178 9.332 9.333 9.332h104c5.155 0 9.333-4.178 9.333-9.332v-296c0-5.154-4.178-9.332-9.333-9.332h-104zM434.244 414.61l-125.954 82.016c-0.498 0.324-0.908 0.768-1.19 1.288-0.282 0.522-0.43 1.106-0.43 1.7v145.244c0 5.89-4.776 10.666-10.668 10.666-5.89 0-10.666-4.776-10.666-10.666v-145.244c0-4.144 1.034-8.224 3.010-11.868 1.976-3.642 4.828-6.736 8.302-8.996l151.636-98.738c11.816-7.696 25.616-11.794 39.718-11.794s27.902 4.098 39.718 11.794l151.636 98.736c3.472 2.262 6.326 5.356 8.302 8.998 1.976 3.644 3.010 7.724 3.010 11.868v145.244c0 5.89-4.776 10.666-10.666 10.666-5.892 0-10.668-4.776-10.668-10.666v-145.244c0-0.594-0.148-1.178-0.43-1.7-0.282-0.52-0.692-0.964-1.188-1.286l-151.636-98.74c-8.354-5.44-18.108-8.336-28.078-8.336l-53.758 25.058zM482.668 528.622c3.278-1.872 7.302-1.872 10.58 0l352.076 201.074c3.324 1.9 5.376 5.434 5.376 9.262 0 3.83-2.052 7.364-5.376 9.264l-352.076 201.075c-3.278 1.872-7.302 1.872-10.58 0l-352.073-201.075c-3.325-1.9-5.377-5.434-5.377-9.264 0-3.828 2.052-7.362 5.377-9.262l352.073-201.074zM487.958 550.17l-330.564 188.788 330.564 188.793 330.568-188.793-330.568-188.788zM781.446 409.558c0-5.892 4.774-10.668 10.666-10.668h96c5.89 0 10.666 4.776 10.666 10.668v165.924c0 32.402-26.266 58.668-58.666 58.668-32.402 0-58.666-26.266-58.666-58.668v-165.924zM802.778 420.224v155.258c0 20.62 16.714 37.334 37.334 37.334 20.618 0 37.334-16.714 37.334-37.334v-155.258h-74.668zM437.336 737.112c0-27.984 22.684-50.666 50.666-50.666 27.984 0 50.668 22.682 50.668 50.666s-22.684 50.666-50.668 50.666c-27.982 0-50.666-22.684-50.666-50.666zM488.002 707.778c-16.2 0-29.332 13.132-29.332 29.334 0 16.2 13.132 29.333 29.332 29.333 16.202 0 29.334-13.133 29.334-29.333 0-16.202-13.132-29.334-29.334-29.334zM840.084 623.782c5.89 0 10.666 4.774 10.666 10.666v104.426c0 5.89-4.776 10.666-10.666 10.666h-312.082c-5.89 0-10.666-4.776-10.666-10.666 0-5.892 4.776-10.668 10.666-10.668h301.416v-93.758c0-5.892 4.774-10.666 10.666-10.666z" />
</font>
</defs>
</svg>
